<?xml version="1.0" encoding="utf-8"?>
<!-- Generator: Adobe Illustrator 23.0.2, SVG Export Plug-In . SVG Version: 6.00 Build 0)  -->
<svg version="1.1" id="Capa_1" xmlns="http://www.w3.org/2000/svg" xmlns:xlink="http://www.w3.org/1999/xlink" x="0px" y="0px"
	 viewBox="0 0 800 600" style="enable-background:new 0 0 800 600;" xml:space="preserve">
<style type="text/css">
	.st0{fill:#EC6657;}
	.st1{display:none;}
	.st2{display:inline;fill:#EC6657;}
	.st3{display:inline;}
	.st4{fill:#652440;stroke:#652440;stroke-width:0.25;stroke-miterlimit:10;}
	.st5{display:inline;fill:#652440;stroke:#652440;stroke-width:0.25;stroke-miterlimit:10;}
	.st6{display:inline;fill:#FFFFFF;}
	.st7{fill:#652440;}
</style>
<path class="st0" d="M400,104.1c-108.2,0-195.9,87.7-195.9,195.9S291.8,495.9,400,495.9S595.9,408.2,595.9,300
	S508.2,104.1,400,104.1z M400,448.5c-81.9,0-148.5-66.6-148.5-148.5S318.1,151.5,400,151.5S548.5,218.1,548.5,300
	S481.9,448.5,400,448.5z"/>
<g id="C01" class="st1">
	<path class="st2" d="M400,104.1c-108.2,0-195.9,87.7-195.9,195.9S291.8,495.9,400,495.9S595.9,408.2,595.9,300
		S508.2,104.1,400,104.1z M400,448.3c-81.9,0-148.4-66.4-148.4-148.3S318,151.6,400,151.6c81.9,0,148.3,66.4,148.3,148.4
		C548.3,381.9,481.9,448.3,400,448.3z"/>
</g>
<g id="C02" class="st1">
	<g class="st3">
		<path class="st4" d="M400,97.3c-111.8,0-202.7,90.9-202.7,202.7c0,111.7,90.9,202.7,202.7,202.7c111.7,0,202.7-90.9,202.7-202.7
			S511.8,97.3,400,97.3z M400,489.1c-104.3,0-189.2-84.9-189.2-189.1c0-104.3,84.9-189.2,189.2-189.2S589.1,195.7,589.1,300
			C589.2,404.3,504.3,489.1,400,489.1z"/>
		<path class="st4" d="M400,144.9c-85.5,0-155.1,69.6-155.1,155.1S314.5,455.1,400,455.1S555.1,385.5,555.1,300
			S485.5,144.9,400,144.9z M400,441.6c-78.1,0-141.6-63.5-141.6-141.6S321.9,158.4,400,158.4S541.6,221.9,541.6,300
			S478.1,441.6,400,441.6z"/>
		<polygon class="st4" points="457.3,212 400,269.4 342.7,212 312,242.7 369.4,300 312,357.3 342.7,388 400,330.6 457.3,388 
			488,357.3 430.6,300 488,242.7 		"/>
	</g>
</g>
<g id="Capa_3" class="st1">
	<ellipse class="st5" cx="400" cy="300" rx="202.7" ry="202.7"/>
</g>
<g id="Capa_4" class="st1">
	<path class="st6" d="M518.4,360.5L415,172c-3-5.5-8.8-8.9-15-8.9c-6.3,0-12,3.4-15,8.9L281.6,360.5c-2.9,5.3-2.8,11.8,0.3,17
		s8.7,8.4,14.8,8.4h206.8c6.1,0,11.7-3.2,14.8-8.4S521.3,365.8,518.4,360.5z"/>
	<g class="st3">
		<g>
			<path class="st4" d="M386.3,341.1c0-8,5.8-13.7,13.7-13.7c8.4,0,13.7,5.8,13.7,13.7c0,7.7-5.3,13.7-13.7,13.7
				C391.9,354.8,386.3,348.8,386.3,341.1z M392.1,316.2l-3.3-111.6h22.3l-3.3,111.6H392.1z"/>
		</g>
	</g>
	<rect x="389" y="205" class="st5" width="25" height="111"/>
</g>
<path class="st7" d="M400,97.3c-111.8,0-202.7,90.9-202.7,202.7c0,111.7,90.9,202.7,202.7,202.7c111.7,0,202.7-90.9,202.7-202.7
	S511.8,97.3,400,97.3z M400,489.1c-104.3,0-189.2-84.9-189.2-189.1c0-104.3,84.9-189.2,189.2-189.2S589.1,195.7,589.1,300
	C589.2,404.3,504.3,489.1,400,489.1z"/>
<g>
	<rect x="386.5" y="211.1" class="st7" width="27.2" height="110.5"/>
	
		<ellipse transform="matrix(0.9732 -0.2298 0.2298 0.9732 -68.2608 101.0953)" class="st7" cx="400" cy="343.7" rx="13.1" ry="13.1"/>
	<path class="st7" d="M400,144.9c-85.5,0-155.1,69.6-155.1,155.1S314.5,455.1,400,455.1S555.1,385.5,555.1,300
		S485.5,144.9,400,144.9z M498.6,380.7H301.6c-5.8,0-11.1-3-14.1-8c-3-5-3-11.1-0.3-16.2l98.5-179.6c2.9-5.2,8.3-8.5,14.3-8.5
		c5.9,0,11.4,3.2,14.3,8.5l98.5,179.6c2.8,5.1,2.9,11.2-0.1,16.2C509.8,377.6,504.4,380.7,498.6,380.7z"/>
</g>
</svg>
