<!-- Generated by IcoMoon.io -->
<svg version="1.1" xmlns="http://www.w3.org/2000/svg" width="512" height="512" viewBox="0 0 512 512">
<title>bug_report</title>
<path fill="#87AEB4" d="M299 256v-43h-86v43h86zM299 341v-42h-86v42h86zM427 171v42h-45c1 7 2 15 2 22v21h43v43h-43v21c0 7-1 14-2 21h45v43h-60c-22 38-64 64-111 64s-89-26-111-64h-60v-43h45c-1-7-2-14-2-21v-21h-43v-43h43v-21c0-7 1-15 2-22h-45v-42h60c10-17 23-31 39-42l-35-35 30-30 47 46c10-2 20-3 30-3s20 1 30 3l47-46 30 30-35 35c16 11 29 25 39 42h60z"></path>
</svg>
