<?xml version="1.0" encoding="utf-8"?>
<!-- Generator: Adobe Illustrator 23.0.2, SVG Export Plug-In . SVG Version: 6.00 Build 0)  -->
<svg version="1.1" id="Capa_1" xmlns="http://www.w3.org/2000/svg" xmlns:xlink="http://www.w3.org/1999/xlink" x="0px" y="0px"
	 viewBox="0 0 800 600" style="enable-background:new 0 0 800 600;" xml:space="preserve">
<style type="text/css">
	.st0{display:none;}
	.st1{display:inline;fill:#EC6657;}
	.st2{display:inline;}
	.st3{fill:#652440;stroke:#652440;stroke-width:0.25;stroke-miterlimit:10;}
	.st4{display:inline;fill:#652440;stroke:#652440;stroke-width:0.25;stroke-miterlimit:10;}
	.st5{display:inline;fill:#FFFFFF;}
	.st6{fill:#D7E5F5;}
	.st7{fill:#D06557;}
	.st8{fill:#91602E;}
	.st9{fill:#EC6657;}
</style>
<g id="C01" class="st0">
	<path class="st1" d="M400,104.1c-108.2,0-195.9,87.7-195.9,195.9S291.8,495.9,400,495.9S595.9,408.2,595.9,300
		S508.2,104.1,400,104.1z M400,448.3c-81.9,0-148.4-66.4-148.4-148.3S318,151.6,400,151.6c81.9,0,148.3,66.4,148.3,148.4
		C548.3,381.9,481.9,448.3,400,448.3z"/>
</g>
<g id="C02" class="st0">
	<g class="st2">
		<path class="st3" d="M400,97.3c-111.8,0-202.7,90.9-202.7,202.7c0,111.7,90.9,202.7,202.7,202.7c111.7,0,202.7-90.9,202.7-202.7
			S511.8,97.3,400,97.3z M400,489.1c-104.3,0-189.2-84.9-189.2-189.1c0-104.3,84.9-189.2,189.2-189.2S589.1,195.7,589.1,300
			C589.2,404.3,504.3,489.1,400,489.1z"/>
		<path class="st3" d="M400,144.9c-85.5,0-155.1,69.6-155.1,155.1S314.5,455.1,400,455.1S555.1,385.5,555.1,300
			S485.5,144.9,400,144.9z M400,441.6c-78.1,0-141.6-63.5-141.6-141.6S321.9,158.4,400,158.4S541.6,221.9,541.6,300
			S478.1,441.6,400,441.6z"/>
		<polygon class="st3" points="457.3,212 400,269.4 342.7,212 312,242.7 369.4,300 312,357.3 342.7,388 400,330.6 457.3,388 
			488,357.3 430.6,300 488,242.7 		"/>
	</g>
</g>
<g id="Capa_3" class="st0">
	<ellipse class="st4" cx="400" cy="300" rx="202.7" ry="202.7"/>
</g>
<g id="Capa_4" class="st0">
	<path class="st5" d="M518.4,360.5L415,172c-3-5.5-8.8-8.9-15-8.9c-6.3,0-12,3.4-15,8.9L281.6,360.5c-2.9,5.3-2.8,11.8,0.3,17
		s8.7,8.4,14.8,8.4h206.8c6.1,0,11.7-3.2,14.8-8.4S521.3,365.8,518.4,360.5z"/>
	<g class="st2">
		<g>
			<path class="st3" d="M386.3,341.1c0-8,5.8-13.7,13.7-13.7c8.4,0,13.7,5.8,13.7,13.7c0,7.7-5.3,13.7-13.7,13.7
				C391.9,354.8,386.3,348.8,386.3,341.1z M392.1,316.2l-3.3-111.6h22.3l-3.3,111.6H392.1z"/>
		</g>
	</g>
	<rect x="389" y="205" class="st4" width="25" height="111"/>
</g>
<g>
	<g>
		<path class="st6" d="M400,151.6"/>
		<path class="st7" d="M488,242.7"/>
		<path class="st8" d="M476.6,231.3"/>
		<path class="st9" d="M400,104.1c-108.2,0-195.9,87.7-195.9,195.9c0,108.2,87.7,195.9,195.9,195.9c108.2,0,195.9-87.7,195.9-195.9
			C595.9,191.8,508.2,104.1,400,104.1z M400,448.3c-81.9,0-148.4-66.4-148.4-148.3c0-81.9,66.4-148.4,148.4-148.4
			c81.9,0,148.3,66.4,148.3,148.4C548.3,381.9,481.9,448.3,400,448.3z"/>
	</g>
	<path class="st3" d="M400,97.3c-111.8,0-202.7,90.9-202.7,202.7c0,111.7,90.9,202.7,202.7,202.7c111.7,0,202.7-90.9,202.7-202.7
		C602.7,188.2,511.7,97.3,400,97.3L400,97.3z M400,489.1c-104.3,0-189.2-84.9-189.2-189.1c0-104.3,84.9-189.2,189.2-189.2
		c104.3,0,189.1,84.9,189.1,189.2C589.1,404.3,504.3,489.1,400,489.1L400,489.1z M400,489.1"/>
	<path class="st3" d="M400,144.9c-85.5,0-155.1,69.6-155.1,155.1c0,85.5,69.6,155.1,155.1,155.1c85.5,0,155.1-69.6,155.1-155.1
		C555.1,214.5,485.5,144.9,400,144.9L400,144.9z M400,441.6c-78.1,0-141.6-63.5-141.6-141.6c0-78.1,63.5-141.6,141.6-141.6
		c78.1,0,141.6,63.5,141.6,141.6C541.6,378.1,478.1,441.6,400,441.6L400,441.6z M400,441.6"/>
	<g>
		<path class="st3" d="M400.5,199.2c-36.5,0-66.3,29.7-66.3,66.3v7h37.7v-7c0-15.7,12.8-28.5,28.5-28.5c15.7,0,28.5,12.8,28.5,28.5
			c0,10.1-5.4,19.6-14.2,24.7c-20.5,12-33.2,34.1-33.2,57.8v7.4h37.7V348c0-10.4,5.6-20,14.5-25.3c20.3-11.8,32.9-33.8,32.9-57.2
			C466.7,228.9,437,199.2,400.5,199.2z"/>
		<rect x="381.6" y="365.1" class="st3" width="37.7" height="37.7"/>
	</g>
</g>
</svg>
