<!-- Generated by IcoMoon.io -->
<svg version="1.1" xmlns="http://www.w3.org/2000/svg" width="512" height="512" viewBox="0 0 512 512">
<title>googleplus</title>
<path fill="#fff" d="M162.88 232.726v55.872h92.48c-3.69 24-27.947 70.293-92.394 70.293-55.552 0-100.928-46.080-100.928-102.891 0-56.79 45.269-102.87 100.864-102.87 31.68 0 52.886 13.504 64.96 25.131l44.224-42.538c-28.374-26.56-65.195-42.56-109.12-42.56-90.176-0.043-162.965 72.917-162.965 162.838s72.832 162.88 162.88 162.88c94.080 0 156.416-66.091 156.416-159.168 0-10.688-1.152-18.88-2.56-26.987h-153.856zM512 232.726h-46.57v-46.571h-46.57v46.571h-46.55v46.528h46.592v46.592h46.699v-46.592h46.4z"></path>
</svg>
