<?xml version="1.0" encoding="utf-8"?>
<!-- Generator: Adobe Illustrator 16.0.0, SVG Export Plug-In . SVG Version: 6.00 Build 0)  -->
<!DOCTYPE svg PUBLIC "-//W3C//DTD SVG 1.1//EN" "http://www.w3.org/Graphics/SVG/1.1/DTD/svg11.dtd">
<svg version="1.1" id="Capa_1" xmlns="http://www.w3.org/2000/svg" xmlns:xlink="http://www.w3.org/1999/xlink" x="0px" y="0px"
	 width="229px" height="114px" viewBox="0 0 229 114" enable-background="new 0 0 229 114" xml:space="preserve">
<g>
	<g>
		<path fill="#FFFFFF" d="M34.183,99.348v-4.062h0.821v4.062H34.183z"/>
		<path fill="#FFFFFF" d="M38.457,99.348h-0.78v-1.503c0-0.315-0.017-0.521-0.051-0.614c-0.034-0.095-0.086-0.168-0.16-0.217
			c-0.075-0.054-0.165-0.08-0.271-0.08c-0.135,0-0.256,0.039-0.363,0.11c-0.107,0.074-0.182,0.172-0.22,0.295
			c-0.041,0.122-0.06,0.347-0.06,0.677v1.332h-0.779v-2.941h0.723v0.432c0.257-0.333,0.58-0.499,0.971-0.499
			c0.172,0,0.328,0.03,0.469,0.093c0.144,0.062,0.254,0.142,0.326,0.237c0.071,0.097,0.121,0.204,0.15,0.327
			c0.029,0.121,0.045,0.297,0.045,0.523V99.348z"/>
		<path fill="#FFFFFF" d="M38.971,98.508l0.781-0.119c0.031,0.151,0.102,0.267,0.203,0.346c0.101,0.078,0.243,0.117,0.427,0.117
			c0.2,0,0.352-0.037,0.454-0.111c0.066-0.051,0.102-0.119,0.102-0.207c0-0.059-0.018-0.107-0.056-0.146
			c-0.038-0.037-0.123-0.072-0.26-0.103c-0.628-0.138-1.026-0.265-1.193-0.38c-0.232-0.158-0.348-0.379-0.348-0.661
			c0-0.257,0.1-0.47,0.3-0.644c0.201-0.175,0.513-0.262,0.937-0.262c0.403,0,0.701,0.064,0.897,0.196
			c0.196,0.132,0.331,0.325,0.405,0.582l-0.735,0.137c-0.031-0.114-0.091-0.203-0.179-0.264c-0.088-0.062-0.211-0.093-0.374-0.093
			c-0.207,0-0.352,0.029-0.441,0.086c-0.06,0.041-0.088,0.095-0.088,0.158c0,0.058,0.025,0.104,0.075,0.142
			c0.071,0.053,0.313,0.125,0.729,0.219c0.417,0.097,0.705,0.211,0.869,0.349c0.163,0.137,0.244,0.332,0.244,0.578
			c0,0.27-0.113,0.502-0.339,0.694c-0.225,0.192-0.557,0.291-0.999,0.291c-0.401,0-0.72-0.081-0.951-0.242
			C39.196,99.007,39.041,98.786,38.971,98.508z"/>
		<path fill="#FFFFFF" d="M43.748,96.405v0.62h-0.529v1.187c0,0.239,0.005,0.379,0.016,0.42c0.008,0.038,0.032,0.07,0.069,0.099
			c0.036,0.024,0.079,0.037,0.131,0.037c0.071,0,0.177-0.023,0.313-0.074l0.066,0.604c-0.181,0.078-0.386,0.116-0.614,0.116
			c-0.142,0-0.268-0.022-0.38-0.07c-0.113-0.047-0.196-0.108-0.248-0.184c-0.054-0.074-0.09-0.175-0.109-0.304
			c-0.018-0.09-0.025-0.271-0.025-0.549v-1.281H42.08v-0.621h0.357v-0.586l0.781-0.452v1.038L43.748,96.405L43.748,96.405z"/>
		<path fill="#FFFFFF" d="M44.291,96.007v-0.721h0.779v0.721H44.291z M44.291,99.348v-2.941h0.779v2.941H44.291z"/>
		<path fill="#FFFFFF" d="M47.217,96.405v0.62h-0.532v1.187c0,0.239,0.005,0.379,0.015,0.42c0.011,0.038,0.034,0.07,0.069,0.099
			c0.037,0.024,0.08,0.037,0.132,0.037c0.072,0,0.177-0.023,0.313-0.074l0.066,0.604c-0.183,0.078-0.386,0.116-0.615,0.116
			c-0.141,0-0.267-0.022-0.38-0.07c-0.112-0.047-0.196-0.108-0.249-0.184c-0.052-0.074-0.087-0.175-0.107-0.304
			c-0.019-0.09-0.026-0.271-0.026-0.549v-1.281h-0.356v-0.621h0.356v-0.586l0.782-0.452v1.038L47.217,96.405L47.217,96.405z"/>
		<path fill="#FFFFFF" d="M49.693,99.348v-0.44c-0.106,0.157-0.247,0.28-0.422,0.372c-0.175,0.09-0.359,0.135-0.553,0.135
			c-0.198,0-0.375-0.043-0.532-0.13c-0.157-0.087-0.271-0.21-0.341-0.366c-0.07-0.156-0.105-0.373-0.105-0.65v-1.86h0.779v1.351
			c0,0.415,0.013,0.667,0.041,0.762c0.029,0.094,0.081,0.168,0.158,0.222c0.075,0.054,0.171,0.083,0.287,0.083
			c0.134,0,0.251-0.037,0.358-0.111c0.104-0.072,0.177-0.162,0.216-0.271c0.037-0.107,0.059-0.371,0.059-0.793v-1.24h0.777v2.941
			h-0.722V99.348z"/>
		<path fill="#FFFFFF" d="M52.572,96.405v0.62h-0.533v1.187c0,0.239,0.008,0.379,0.016,0.42c0.012,0.038,0.033,0.07,0.069,0.099
			c0.036,0.024,0.08,0.037,0.131,0.037c0.073,0,0.178-0.023,0.313-0.074l0.069,0.604c-0.183,0.078-0.389,0.116-0.618,0.116
			c-0.139,0-0.266-0.022-0.379-0.07c-0.111-0.047-0.194-0.108-0.248-0.184c-0.051-0.074-0.088-0.175-0.108-0.304
			c-0.018-0.09-0.025-0.271-0.025-0.549v-1.281h-0.357v-0.621h0.357v-0.586l0.78-0.452v1.038L52.572,96.405L52.572,96.405z"/>
		<path fill="#FFFFFF" d="M52.933,97.834c0-0.259,0.062-0.509,0.19-0.75s0.31-0.428,0.542-0.557
			c0.233-0.127,0.495-0.189,0.782-0.189c0.445,0,0.811,0.145,1.095,0.436c0.284,0.287,0.427,0.652,0.427,1.096
			c0,0.445-0.144,0.812-0.43,1.105c-0.288,0.293-0.65,0.438-1.085,0.438c-0.271,0-0.526-0.062-0.772-0.183
			c-0.244-0.121-0.431-0.301-0.559-0.537C52.994,98.46,52.933,98.173,52.933,97.834z M53.731,97.876
			c0,0.291,0.068,0.517,0.208,0.671c0.136,0.155,0.308,0.23,0.512,0.23c0.202,0,0.373-0.075,0.512-0.23
			c0.136-0.154,0.204-0.381,0.204-0.677c0-0.287-0.068-0.511-0.204-0.664c-0.139-0.156-0.31-0.233-0.512-0.233
			c-0.204,0-0.376,0.077-0.512,0.233C53.8,97.359,53.731,97.584,53.731,97.876z"/>
		<path fill="#FFFFFF" d="M60.854,99.348h-0.723v-0.433c-0.121,0.168-0.263,0.293-0.424,0.374c-0.165,0.083-0.33,0.124-0.496,0.124
			c-0.338,0-0.629-0.136-0.869-0.408c-0.241-0.272-0.36-0.651-0.36-1.14c0-0.499,0.116-0.879,0.351-1.139s0.531-0.39,0.89-0.39
			c0.328,0,0.612,0.138,0.854,0.41v-1.462h0.778L60.854,99.348L60.854,99.348z M58.776,97.812c0,0.313,0.044,0.541,0.13,0.683
			c0.124,0.2,0.299,0.303,0.526,0.303c0.179,0,0.331-0.075,0.456-0.229c0.127-0.149,0.188-0.379,0.188-0.682
			c0-0.339-0.062-0.582-0.183-0.729c-0.12-0.148-0.278-0.226-0.467-0.226c-0.187,0-0.341,0.074-0.468,0.221
			C58.838,97.301,58.776,97.521,58.776,97.812z"/>
		<path fill="#FFFFFF" d="M63.325,98.411l0.775,0.131c-0.1,0.283-0.259,0.5-0.472,0.647c-0.215,0.148-0.485,0.224-0.808,0.224
			c-0.512,0-0.891-0.166-1.137-0.501c-0.193-0.27-0.291-0.605-0.291-1.016c0-0.486,0.128-0.869,0.383-1.146
			c0.254-0.274,0.576-0.413,0.967-0.413c0.438,0,0.784,0.145,1.036,0.436c0.253,0.287,0.375,0.73,0.362,1.328h-1.949
			c0.003,0.229,0.069,0.408,0.188,0.537c0.12,0.129,0.27,0.193,0.448,0.193c0.124,0,0.226-0.034,0.308-0.102
			C63.221,98.667,63.283,98.559,63.325,98.411z M63.369,97.624c-0.006-0.226-0.063-0.397-0.176-0.515
			c-0.109-0.118-0.246-0.178-0.402-0.178c-0.173,0-0.311,0.063-0.422,0.188c-0.11,0.124-0.166,0.291-0.164,0.505H63.369z"/>
		<path fill="#FFFFFF" d="M67.272,99.348v-3.375h-1.204v-0.687h3.227v0.687h-1.202v3.375H67.272z"/>
		<path fill="#FFFFFF" d="M70.252,99.348h-0.78v-2.941h0.723v0.418c0.125-0.197,0.237-0.328,0.336-0.391
			c0.098-0.063,0.211-0.096,0.336-0.096c0.179,0,0.349,0.048,0.514,0.146l-0.241,0.679c-0.132-0.084-0.254-0.127-0.367-0.127
			c-0.108,0-0.201,0.03-0.277,0.09c-0.074,0.06-0.134,0.17-0.177,0.327c-0.044,0.156-0.065,0.484-0.065,0.984v0.91H70.252z"/>
		<path fill="#FFFFFF" d="M72.297,97.302l-0.707-0.127c0.08-0.284,0.215-0.493,0.41-0.631c0.193-0.137,0.481-0.206,0.864-0.206
			c0.348,0,0.604,0.041,0.774,0.124c0.171,0.082,0.291,0.187,0.36,0.312c0.069,0.129,0.105,0.36,0.105,0.699l-0.011,0.907
			c0,0.259,0.014,0.448,0.037,0.571c0.025,0.122,0.072,0.257,0.142,0.396H73.5c-0.02-0.053-0.045-0.129-0.075-0.229
			c-0.011-0.048-0.022-0.078-0.026-0.093c-0.133,0.13-0.276,0.227-0.428,0.289c-0.151,0.066-0.313,0.099-0.484,0.099
			c-0.304,0-0.54-0.082-0.717-0.246c-0.176-0.164-0.261-0.372-0.261-0.623c0-0.166,0.039-0.313,0.118-0.444
			c0.08-0.132,0.191-0.23,0.335-0.3c0.143-0.069,0.35-0.129,0.619-0.181c0.363-0.069,0.616-0.133,0.757-0.192V97.35
			c0-0.148-0.038-0.257-0.112-0.32c-0.073-0.063-0.213-0.096-0.417-0.096c-0.138,0-0.246,0.027-0.325,0.082
			C72.407,97.068,72.345,97.167,72.297,97.302z M73.339,97.936c-0.101,0.032-0.259,0.071-0.475,0.119
			c-0.217,0.045-0.357,0.092-0.423,0.135c-0.103,0.071-0.155,0.164-0.155,0.273c0,0.107,0.043,0.204,0.124,0.282
			c0.082,0.08,0.187,0.119,0.31,0.119c0.14,0,0.274-0.046,0.401-0.138c0.095-0.069,0.155-0.156,0.187-0.259
			c0.02-0.065,0.031-0.192,0.031-0.38V97.936z"/>
		<path fill="#FFFFFF" d="M77.545,99.348h-0.778v-1.503c0-0.315-0.015-0.521-0.049-0.614c-0.034-0.095-0.088-0.168-0.163-0.217
			c-0.074-0.054-0.164-0.08-0.27-0.08c-0.134,0-0.256,0.039-0.362,0.11c-0.105,0.074-0.18,0.172-0.222,0.295
			c-0.039,0.122-0.057,0.347-0.057,0.677v1.332h-0.78v-2.941h0.725v0.432c0.256-0.333,0.579-0.499,0.967-0.499
			c0.174,0,0.33,0.03,0.473,0.093s0.25,0.142,0.323,0.237c0.072,0.097,0.123,0.204,0.152,0.327c0.029,0.121,0.041,0.297,0.041,0.523
			V99.348z"/>
		<path fill="#FFFFFF" d="M78.062,98.508l0.781-0.119c0.032,0.151,0.101,0.267,0.204,0.346c0.1,0.078,0.241,0.117,0.424,0.117
			c0.203,0,0.354-0.037,0.456-0.111c0.067-0.051,0.103-0.119,0.103-0.207c0-0.059-0.018-0.107-0.056-0.146
			c-0.04-0.037-0.126-0.072-0.261-0.103c-0.628-0.138-1.025-0.265-1.194-0.38c-0.233-0.158-0.349-0.379-0.349-0.661
			c0-0.257,0.1-0.47,0.302-0.644c0.201-0.175,0.514-0.262,0.938-0.262c0.401,0,0.701,0.064,0.896,0.196
			c0.194,0.132,0.33,0.325,0.404,0.582l-0.733,0.137c-0.031-0.114-0.091-0.203-0.18-0.264c-0.087-0.062-0.212-0.093-0.375-0.093
			c-0.205,0-0.352,0.029-0.439,0.086c-0.061,0.041-0.09,0.095-0.09,0.158c0,0.058,0.026,0.104,0.078,0.142
			c0.07,0.053,0.313,0.125,0.728,0.219c0.414,0.097,0.704,0.211,0.869,0.349c0.162,0.137,0.244,0.332,0.244,0.578
			c0,0.27-0.114,0.502-0.339,0.694s-0.561,0.291-1.002,0.291c-0.399,0-0.716-0.081-0.951-0.242
			C78.286,99.007,78.134,98.786,78.062,98.508z"/>
		<path fill="#FFFFFF" d="M81.471,96.405h0.726v0.432c0.092-0.147,0.221-0.269,0.381-0.358c0.163-0.095,0.339-0.141,0.534-0.141
			c0.343,0,0.633,0.135,0.871,0.401c0.24,0.27,0.357,0.642,0.357,1.12c0,0.49-0.119,0.871-0.36,1.146
			c-0.24,0.272-0.53,0.408-0.872,0.408c-0.164,0-0.31-0.031-0.441-0.099c-0.133-0.062-0.271-0.174-0.417-0.33v1.48h-0.778
			L81.471,96.405L81.471,96.405z M82.238,97.826c0,0.33,0.067,0.574,0.198,0.73c0.131,0.158,0.291,0.238,0.479,0.238
			c0.181,0,0.332-0.074,0.452-0.218c0.119-0.146,0.179-0.382,0.179-0.713c0-0.31-0.062-0.538-0.184-0.688
			c-0.125-0.148-0.278-0.224-0.46-0.224c-0.192,0-0.351,0.071-0.476,0.219C82.304,97.318,82.238,97.538,82.238,97.826z"/>
		<path fill="#FFFFFF" d="M85.541,97.302l-0.706-0.127c0.077-0.284,0.214-0.493,0.409-0.631c0.193-0.137,0.481-0.206,0.863-0.206
			c0.349,0,0.606,0.041,0.775,0.124c0.17,0.082,0.29,0.187,0.358,0.312c0.069,0.129,0.104,0.36,0.104,0.699l-0.008,0.907
			c0,0.259,0.014,0.448,0.038,0.571c0.025,0.122,0.071,0.257,0.14,0.396h-0.771c-0.019-0.053-0.047-0.129-0.074-0.229
			c-0.013-0.048-0.022-0.078-0.028-0.093c-0.134,0.13-0.275,0.227-0.427,0.289c-0.151,0.066-0.313,0.099-0.485,0.099
			c-0.302,0-0.542-0.082-0.716-0.246c-0.175-0.164-0.262-0.372-0.262-0.623c0-0.166,0.038-0.313,0.118-0.444
			c0.081-0.132,0.192-0.23,0.333-0.3c0.146-0.069,0.352-0.129,0.621-0.181c0.364-0.069,0.618-0.133,0.757-0.192V97.35
			c0-0.148-0.038-0.257-0.112-0.32c-0.072-0.063-0.212-0.096-0.417-0.096c-0.138,0-0.248,0.027-0.325,0.082
			C85.648,97.068,85.589,97.167,85.541,97.302z M86.582,97.936c-0.1,0.032-0.259,0.071-0.475,0.119
			c-0.215,0.045-0.355,0.092-0.423,0.135c-0.103,0.071-0.153,0.164-0.153,0.273c0,0.107,0.042,0.204,0.121,0.282
			c0.083,0.08,0.187,0.119,0.313,0.119c0.14,0,0.272-0.046,0.4-0.138c0.096-0.069,0.156-0.156,0.187-0.259
			c0.019-0.065,0.03-0.192,0.03-0.38V97.936z"/>
		<path fill="#FFFFFF" d="M88.859,99.348h-0.778v-2.941h0.723v0.418c0.123-0.197,0.234-0.328,0.333-0.391
			c0.1-0.063,0.212-0.096,0.336-0.096c0.177,0,0.351,0.048,0.515,0.146l-0.242,0.679c-0.131-0.084-0.252-0.127-0.365-0.127
			c-0.11,0-0.202,0.03-0.278,0.09c-0.074,0.06-0.135,0.17-0.178,0.327c-0.042,0.156-0.064,0.484-0.064,0.984v0.91H88.859z"/>
		<path fill="#FFFFFF" d="M92.024,98.411l0.778,0.131c-0.101,0.283-0.258,0.5-0.474,0.647c-0.214,0.148-0.485,0.224-0.808,0.224
			c-0.511,0-0.89-0.166-1.135-0.501c-0.195-0.27-0.291-0.605-0.291-1.016c0-0.486,0.127-0.869,0.381-1.146
			c0.255-0.274,0.579-0.413,0.967-0.413c0.438,0,0.783,0.145,1.037,0.436c0.252,0.287,0.374,0.73,0.363,1.328h-1.951
			c0.006,0.229,0.069,0.408,0.188,0.537c0.12,0.129,0.269,0.193,0.449,0.193c0.121,0,0.225-0.034,0.308-0.102
			C91.92,98.667,91.985,98.559,92.024,98.411z M92.07,97.624c-0.006-0.226-0.063-0.397-0.174-0.515
			c-0.11-0.118-0.247-0.178-0.405-0.178c-0.17,0-0.312,0.063-0.421,0.188c-0.111,0.124-0.166,0.291-0.163,0.505H92.07z"/>
		<path fill="#FFFFFF" d="M96.153,99.348h-0.778v-1.503c0-0.315-0.015-0.521-0.048-0.614c-0.034-0.095-0.089-0.168-0.163-0.217
			c-0.074-0.054-0.165-0.08-0.271-0.08c-0.135,0-0.255,0.039-0.363,0.11c-0.105,0.074-0.178,0.172-0.219,0.295
			c-0.039,0.122-0.062,0.347-0.062,0.677v1.332h-0.776v-2.941h0.724v0.432c0.256-0.333,0.579-0.499,0.968-0.499
			c0.171,0,0.33,0.03,0.472,0.093c0.143,0.062,0.25,0.142,0.322,0.237c0.074,0.097,0.126,0.204,0.152,0.327
			c0.03,0.121,0.043,0.297,0.043,0.523L96.153,99.348L96.153,99.348z"/>
		<path fill="#FFFFFF" d="M99.508,97.273l-0.766,0.14c-0.026-0.152-0.084-0.269-0.177-0.347c-0.092-0.077-0.209-0.116-0.355-0.116
			c-0.194,0-0.349,0.067-0.464,0.2c-0.114,0.136-0.173,0.357-0.173,0.673c0,0.35,0.059,0.596,0.176,0.739
			c0.117,0.145,0.274,0.215,0.474,0.215c0.147,0,0.268-0.041,0.362-0.125c0.093-0.084,0.159-0.229,0.199-0.434l0.763,0.131
			c-0.079,0.351-0.23,0.615-0.456,0.795c-0.224,0.18-0.527,0.269-0.906,0.269c-0.431,0-0.774-0.136-1.029-0.406
			c-0.257-0.271-0.382-0.647-0.382-1.128c0-0.484,0.128-0.863,0.383-1.136c0.258-0.271,0.606-0.405,1.042-0.405
			c0.358,0,0.644,0.077,0.854,0.23C99.263,96.723,99.416,96.959,99.508,97.273z"/>
		<path fill="#FFFFFF" d="M100.098,96.007v-0.721h0.78v0.721H100.098z M100.098,99.348v-2.941h0.78v2.941H100.098z"/>
		<path fill="#FFFFFF" d="M102.256,97.302l-0.703-0.127c0.08-0.284,0.215-0.493,0.409-0.631c0.192-0.137,0.482-0.206,0.863-0.206
			c0.347,0,0.607,0.041,0.776,0.124c0.17,0.082,0.29,0.187,0.359,0.312c0.066,0.129,0.103,0.36,0.103,0.699l-0.007,0.907
			c0,0.259,0.014,0.448,0.036,0.571c0.024,0.122,0.071,0.257,0.141,0.396h-0.771c-0.021-0.053-0.043-0.129-0.075-0.229
			c-0.013-0.048-0.021-0.078-0.026-0.093c-0.136,0.13-0.276,0.227-0.428,0.289c-0.152,0.066-0.312,0.099-0.484,0.099
			c-0.303,0-0.542-0.082-0.716-0.246c-0.175-0.164-0.263-0.372-0.263-0.623c0-0.166,0.039-0.313,0.12-0.444
			c0.079-0.132,0.191-0.23,0.332-0.3c0.146-0.069,0.35-0.129,0.62-0.181c0.363-0.069,0.615-0.133,0.756-0.192V97.35
			c0-0.148-0.036-0.257-0.11-0.32c-0.072-0.063-0.213-0.096-0.419-0.096c-0.138,0-0.247,0.027-0.324,0.082
			C102.368,97.068,102.305,97.167,102.256,97.302z M103.299,97.936c-0.099,0.032-0.258,0.071-0.474,0.119
			c-0.216,0.045-0.356,0.092-0.424,0.135c-0.1,0.071-0.152,0.164-0.152,0.273c0,0.107,0.042,0.204,0.122,0.282
			c0.081,0.08,0.185,0.119,0.311,0.119c0.141,0,0.274-0.046,0.401-0.138c0.094-0.069,0.156-0.156,0.187-0.259
			c0.021-0.065,0.029-0.192,0.029-0.38V97.936z"/>
		<path fill="#FFFFFF" d="M104.814,98.568h0.776v0.558c0,0.226-0.021,0.401-0.06,0.533c-0.038,0.129-0.111,0.247-0.218,0.35
			c-0.108,0.104-0.246,0.187-0.412,0.244l-0.152-0.321c0.156-0.052,0.267-0.121,0.334-0.213c0.067-0.091,0.103-0.215,0.105-0.371
			h-0.374L104.814,98.568L104.814,98.568z"/>
		<path fill="#FFFFFF" d="M111.442,99.348h-0.891l-0.355-0.923h-1.624l-0.337,0.923h-0.868l1.582-4.062h0.866L111.442,99.348z
			 M109.933,97.739l-0.561-1.507l-0.549,1.507H109.933z"/>
		<path fill="#FFFFFF" d="M114.437,97.273l-0.768,0.14c-0.024-0.152-0.084-0.269-0.175-0.347c-0.092-0.077-0.21-0.116-0.356-0.116
			c-0.194,0-0.349,0.067-0.464,0.2c-0.116,0.136-0.173,0.357-0.173,0.673c0,0.35,0.059,0.596,0.177,0.739
			c0.116,0.146,0.275,0.215,0.473,0.215c0.147,0,0.269-0.041,0.362-0.125c0.094-0.084,0.158-0.229,0.199-0.434l0.765,0.131
			c-0.081,0.351-0.231,0.615-0.457,0.795c-0.227,0.18-0.528,0.269-0.907,0.269c-0.43,0-0.773-0.136-1.028-0.406
			c-0.258-0.271-0.382-0.647-0.382-1.128c0-0.484,0.124-0.863,0.383-1.136c0.257-0.271,0.605-0.405,1.043-0.405
			c0.356,0,0.644,0.077,0.855,0.23C114.192,96.725,114.346,96.959,114.437,97.273z"/>
		<path fill="#FFFFFF" d="M117.592,97.273l-0.766,0.14c-0.026-0.152-0.085-0.269-0.178-0.347c-0.088-0.077-0.211-0.116-0.355-0.116
			c-0.193,0-0.35,0.067-0.465,0.2c-0.114,0.136-0.172,0.357-0.172,0.673c0,0.35,0.058,0.596,0.176,0.739
			c0.119,0.146,0.273,0.215,0.473,0.215c0.146,0,0.269-0.041,0.363-0.125c0.096-0.084,0.162-0.229,0.2-0.434l0.764,0.131
			c-0.079,0.351-0.229,0.615-0.457,0.795c-0.226,0.18-0.526,0.269-0.905,0.269c-0.431,0-0.773-0.136-1.028-0.406
			c-0.256-0.271-0.385-0.647-0.385-1.128c0-0.484,0.129-0.863,0.386-1.136c0.256-0.271,0.604-0.405,1.042-0.405
			c0.358,0,0.643,0.077,0.854,0.23C117.35,96.723,117.501,96.959,117.592,97.273z"/>
		<path fill="#FFFFFF" d="M119.887,98.411l0.776,0.131c-0.101,0.283-0.259,0.5-0.474,0.647c-0.215,0.148-0.482,0.224-0.809,0.224
			c-0.51,0-0.889-0.166-1.136-0.501c-0.193-0.27-0.291-0.605-0.291-1.016c0-0.486,0.128-0.869,0.384-1.146
			c0.254-0.274,0.576-0.413,0.967-0.413c0.438,0,0.784,0.145,1.036,0.436c0.253,0.287,0.373,0.73,0.362,1.328h-1.95
			c0.006,0.229,0.067,0.408,0.188,0.537s0.271,0.193,0.447,0.193c0.121,0,0.226-0.034,0.31-0.102
			C119.781,98.667,119.846,98.559,119.887,98.411z M119.932,97.624c-0.006-0.226-0.063-0.397-0.174-0.515
			c-0.111-0.118-0.247-0.178-0.406-0.178c-0.168,0-0.309,0.063-0.42,0.188s-0.166,0.291-0.164,0.505H119.932z"/>
		<path fill="#FFFFFF" d="M121.064,98.508l0.781-0.119c0.034,0.151,0.1,0.267,0.202,0.346c0.101,0.078,0.244,0.117,0.427,0.117
			c0.202,0,0.352-0.037,0.453-0.111c0.067-0.051,0.104-0.119,0.104-0.207c0-0.059-0.02-0.107-0.055-0.146
			c-0.039-0.037-0.127-0.072-0.262-0.103c-0.627-0.138-1.025-0.265-1.193-0.38c-0.231-0.158-0.349-0.379-0.349-0.661
			c0-0.257,0.101-0.47,0.302-0.644c0.199-0.175,0.515-0.262,0.938-0.262c0.4,0,0.701,0.064,0.896,0.196s0.33,0.325,0.404,0.582
			l-0.734,0.137c-0.03-0.114-0.09-0.203-0.179-0.264c-0.087-0.062-0.212-0.093-0.375-0.093c-0.206,0-0.353,0.029-0.44,0.086
			c-0.06,0.041-0.088,0.095-0.088,0.158c0,0.058,0.023,0.104,0.076,0.142c0.068,0.053,0.312,0.125,0.729,0.219
			c0.416,0.097,0.703,0.211,0.867,0.349c0.164,0.137,0.244,0.332,0.244,0.578c0,0.27-0.112,0.502-0.336,0.694
			c-0.228,0.192-0.562,0.291-1.002,0.291c-0.4,0-0.719-0.081-0.951-0.242C121.29,99.007,121.137,98.786,121.064,98.508z"/>
		<path fill="#FFFFFF" d="M124.314,97.834c0-0.259,0.062-0.509,0.19-0.75s0.31-0.428,0.542-0.557
			c0.232-0.127,0.495-0.189,0.782-0.189c0.442,0,0.812,0.145,1.096,0.436c0.284,0.287,0.427,0.652,0.427,1.096
			c0,0.445-0.145,0.812-0.433,1.105c-0.287,0.293-0.649,0.438-1.084,0.438c-0.271,0-0.526-0.062-0.771-0.183
			c-0.246-0.121-0.433-0.301-0.561-0.537C124.377,98.46,124.314,98.173,124.314,97.834z M125.113,97.876
			c0,0.291,0.068,0.517,0.205,0.671c0.141,0.155,0.31,0.23,0.516,0.23c0.202,0,0.373-0.075,0.512-0.23
			c0.137-0.154,0.205-0.381,0.205-0.677c0-0.287-0.068-0.511-0.205-0.664c-0.139-0.156-0.31-0.233-0.512-0.233
			c-0.206,0-0.375,0.077-0.516,0.233C125.184,97.359,125.113,97.584,125.113,97.876z"/>
		<path fill="#FFFFFF" d="M130.119,97.302l-0.707-0.127c0.08-0.284,0.217-0.493,0.412-0.631c0.193-0.137,0.48-0.206,0.861-0.206
			c0.349,0,0.606,0.041,0.774,0.124c0.172,0.082,0.292,0.187,0.36,0.312c0.07,0.129,0.104,0.36,0.104,0.699l-0.008,0.907
			c0,0.259,0.014,0.448,0.037,0.571c0.025,0.122,0.07,0.257,0.143,0.396h-0.771c-0.021-0.053-0.047-0.129-0.076-0.229
			c-0.012-0.048-0.021-0.078-0.025-0.093c-0.134,0.13-0.277,0.227-0.427,0.289c-0.151,0.066-0.313,0.099-0.487,0.099
			c-0.302,0-0.541-0.082-0.713-0.246c-0.177-0.164-0.264-0.372-0.264-0.623c0-0.166,0.038-0.313,0.117-0.444
			c0.08-0.132,0.191-0.23,0.335-0.3s0.35-0.129,0.618-0.181c0.363-0.069,0.617-0.133,0.759-0.192V97.35
			c0-0.148-0.039-0.257-0.112-0.32c-0.072-0.063-0.212-0.096-0.418-0.096c-0.139,0-0.247,0.027-0.324,0.082
			C130.229,97.068,130.168,97.167,130.119,97.302z M131.162,97.936c-0.1,0.032-0.26,0.071-0.477,0.119
			c-0.215,0.045-0.356,0.092-0.424,0.135c-0.101,0.071-0.15,0.164-0.15,0.273c0,0.107,0.039,0.204,0.121,0.282
			c0.082,0.08,0.186,0.119,0.31,0.119c0.142,0,0.276-0.046,0.401-0.138c0.096-0.069,0.158-0.156,0.187-0.259
			c0.021-0.065,0.032-0.192,0.032-0.38V97.936L131.162,97.936z"/>
		<path fill="#FFFFFF" d="M134.271,99.348v-4.062h0.776v4.062H134.271z"/>
		<path fill="#FFFFFF" d="M136.428,97.302l-0.705-0.127c0.078-0.284,0.215-0.493,0.409-0.631c0.194-0.137,0.481-0.206,0.865-0.206
			c0.346,0,0.604,0.041,0.772,0.124c0.172,0.082,0.291,0.187,0.359,0.312c0.07,0.129,0.104,0.36,0.104,0.699l-0.008,0.907
			c0,0.259,0.012,0.448,0.036,0.571c0.027,0.122,0.073,0.257,0.142,0.396h-0.771c-0.02-0.053-0.046-0.129-0.074-0.229
			c-0.014-0.048-0.021-0.078-0.026-0.093c-0.134,0.13-0.275,0.227-0.427,0.289c-0.153,0.066-0.313,0.099-0.485,0.099
			c-0.304,0-0.541-0.082-0.718-0.246c-0.174-0.164-0.26-0.372-0.26-0.623c0-0.166,0.039-0.313,0.117-0.444
			c0.079-0.132,0.192-0.23,0.334-0.3c0.143-0.069,0.352-0.129,0.62-0.181c0.364-0.069,0.615-0.133,0.757-0.192V97.35
			c0-0.148-0.037-0.257-0.111-0.32c-0.073-0.063-0.215-0.096-0.418-0.096c-0.14,0-0.246,0.027-0.324,0.082
			C136.539,97.068,136.479,97.167,136.428,97.302z M137.471,97.936c-0.101,0.032-0.259,0.071-0.474,0.119
			c-0.22,0.045-0.358,0.092-0.425,0.135c-0.104,0.071-0.151,0.164-0.151,0.273c0,0.107,0.04,0.204,0.121,0.282
			c0.082,0.08,0.187,0.119,0.312,0.119c0.14,0,0.272-0.046,0.4-0.138c0.096-0.069,0.154-0.156,0.186-0.259
			c0.021-0.065,0.031-0.192,0.031-0.38V97.936z"/>
		<path fill="#FFFFFF" d="M140.559,99.348v-4.062h0.819v4.062H140.559z"/>
		<path fill="#FFFFFF" d="M144.833,99.348h-0.78v-1.503c0-0.315-0.018-0.521-0.051-0.614c-0.031-0.095-0.086-0.168-0.16-0.217
			c-0.076-0.054-0.165-0.08-0.271-0.08c-0.135,0-0.256,0.039-0.362,0.11c-0.106,0.074-0.183,0.172-0.222,0.295
			c-0.039,0.122-0.06,0.347-0.06,0.677v1.332h-0.776v-2.941h0.722v0.432c0.256-0.333,0.58-0.499,0.971-0.499
			c0.171,0,0.329,0.03,0.472,0.093c0.142,0.062,0.248,0.142,0.32,0.237c0.073,0.097,0.124,0.204,0.154,0.327
			c0.029,0.121,0.044,0.297,0.044,0.523V99.348z"/>
		<path fill="#FFFFFF" d="M145.279,96.405h0.433v-0.224c0-0.246,0.027-0.432,0.079-0.555c0.053-0.121,0.148-0.221,0.291-0.297
			s0.318-0.115,0.537-0.115c0.222,0,0.438,0.033,0.65,0.1l-0.106,0.543c-0.121-0.028-0.242-0.043-0.356-0.043
			c-0.113,0-0.193,0.025-0.242,0.078s-0.073,0.154-0.073,0.305v0.208h0.581v0.612h-0.581v2.33h-0.778v-2.33h-0.434V96.405
			L145.279,96.405z"/>
		<path fill="#FFFFFF" d="M147.33,97.834c0-0.259,0.062-0.509,0.189-0.75c0.129-0.241,0.311-0.428,0.543-0.557
			c0.231-0.127,0.496-0.189,0.781-0.189c0.446,0,0.812,0.145,1.096,0.436c0.285,0.287,0.428,0.652,0.428,1.096
			c0,0.445-0.145,0.812-0.43,1.105c-0.289,0.293-0.65,0.438-1.086,0.438c-0.271,0-0.526-0.062-0.771-0.183s-0.432-0.301-0.561-0.537
			C147.395,98.46,147.33,98.173,147.33,97.834z M148.129,97.876c0,0.291,0.068,0.517,0.207,0.671c0.141,0.155,0.311,0.23,0.514,0.23
			s0.373-0.075,0.51-0.23c0.138-0.154,0.207-0.381,0.207-0.677c0-0.287-0.069-0.511-0.207-0.664
			c-0.137-0.156-0.307-0.233-0.51-0.233s-0.373,0.077-0.514,0.233C148.197,97.359,148.129,97.584,148.129,97.876z"/>
		<path fill="#FFFFFF" d="M151.721,99.348h-0.777v-2.941h0.725v0.418c0.123-0.197,0.236-0.328,0.333-0.391
			c0.099-0.063,0.211-0.096,0.336-0.096c0.179,0,0.349,0.048,0.513,0.146l-0.238,0.679c-0.133-0.084-0.256-0.127-0.366-0.127
			s-0.202,0.03-0.278,0.09c-0.074,0.06-0.134,0.17-0.178,0.327c-0.045,0.156-0.066,0.484-0.066,0.984v0.91H151.721z"/>
		<path fill="#FFFFFF" d="M153.127,96.405h0.719v0.399c0.256-0.311,0.562-0.468,0.915-0.468c0.189,0,0.353,0.039,0.49,0.116
			c0.14,0.078,0.253,0.195,0.34,0.352c0.132-0.156,0.271-0.272,0.419-0.352c0.149-0.077,0.311-0.116,0.479-0.116
			c0.217,0,0.399,0.044,0.549,0.132s0.264,0.217,0.336,0.387c0.052,0.125,0.08,0.328,0.08,0.609v1.883h-0.778v-1.683
			c0-0.292-0.027-0.481-0.08-0.565c-0.072-0.11-0.183-0.168-0.335-0.168c-0.106,0-0.209,0.035-0.306,0.103
			c-0.098,0.067-0.165,0.164-0.209,0.291c-0.04,0.129-0.062,0.332-0.062,0.608v1.414h-0.779v-1.613c0-0.286-0.014-0.473-0.041-0.555
			c-0.027-0.084-0.071-0.146-0.129-0.186c-0.059-0.041-0.137-0.062-0.235-0.062c-0.12,0-0.228,0.033-0.325,0.099
			c-0.096,0.063-0.165,0.157-0.207,0.278c-0.04,0.123-0.061,0.324-0.061,0.606v1.431h-0.779V96.405L153.127,96.405z"/>
		<path fill="#FFFFFF" d="M158.812,97.302l-0.707-0.127c0.08-0.284,0.217-0.493,0.41-0.631c0.193-0.137,0.482-0.206,0.864-0.206
			c0.349,0,0.606,0.041,0.774,0.124c0.173,0.082,0.291,0.187,0.361,0.312c0.068,0.129,0.104,0.36,0.104,0.699l-0.01,0.907
			c0,0.259,0.013,0.448,0.037,0.571c0.025,0.122,0.071,0.257,0.142,0.396h-0.771c-0.021-0.053-0.045-0.129-0.076-0.229
			c-0.014-0.048-0.021-0.078-0.026-0.093c-0.134,0.13-0.278,0.227-0.427,0.289c-0.151,0.066-0.313,0.099-0.486,0.099
			c-0.301,0-0.541-0.082-0.715-0.246c-0.176-0.164-0.262-0.372-0.262-0.623c0-0.166,0.039-0.313,0.117-0.444
			c0.08-0.132,0.191-0.23,0.336-0.3c0.143-0.069,0.348-0.129,0.617-0.181c0.364-0.069,0.616-0.133,0.758-0.192V97.35
			c0-0.148-0.037-0.257-0.11-0.32c-0.074-0.063-0.213-0.096-0.419-0.096c-0.139,0-0.247,0.027-0.323,0.082
			C158.923,97.068,158.857,97.167,158.812,97.302z M159.854,97.936c-0.103,0.032-0.258,0.071-0.475,0.119
			c-0.216,0.045-0.357,0.092-0.425,0.135c-0.101,0.071-0.149,0.164-0.149,0.273c0,0.107,0.038,0.204,0.12,0.282
			c0.081,0.08,0.185,0.119,0.31,0.119c0.142,0,0.274-0.046,0.401-0.138c0.095-0.069,0.157-0.156,0.188-0.259
			c0.021-0.065,0.03-0.192,0.03-0.38V97.936z"/>
		<path fill="#FFFFFF" d="M163.951,97.273l-0.768,0.14c-0.025-0.152-0.084-0.269-0.178-0.347c-0.091-0.077-0.209-0.116-0.354-0.116
			c-0.194,0-0.351,0.067-0.465,0.2c-0.115,0.136-0.174,0.357-0.174,0.673c0,0.35,0.059,0.596,0.174,0.739
			c0.119,0.146,0.278,0.215,0.476,0.215c0.147,0,0.269-0.041,0.362-0.125c0.095-0.084,0.16-0.229,0.199-0.434l0.766,0.131
			c-0.078,0.351-0.229,0.615-0.458,0.795c-0.226,0.18-0.526,0.269-0.906,0.269c-0.431,0-0.772-0.136-1.028-0.406
			c-0.255-0.271-0.384-0.647-0.384-1.128c0-0.484,0.129-0.863,0.386-1.136c0.256-0.271,0.604-0.405,1.043-0.405
			c0.356,0,0.644,0.077,0.854,0.23C163.706,96.725,163.859,96.959,163.951,97.273z"/>
		<path fill="#FFFFFF" d="M164.542,96.007v-0.721h0.776v0.721H164.542z M164.542,99.348v-2.941h0.776v2.941H164.542z"/>
		<path fill="#FFFFFF" d="M165.938,97.834c0-0.259,0.063-0.509,0.191-0.75c0.127-0.241,0.307-0.428,0.539-0.557
			c0.234-0.127,0.495-0.189,0.784-0.189c0.446,0,0.812,0.145,1.095,0.436c0.285,0.287,0.426,0.652,0.426,1.096
			c0,0.445-0.143,0.812-0.431,1.105c-0.285,0.293-0.647,0.438-1.083,0.438c-0.271,0-0.527-0.062-0.773-0.183
			c-0.244-0.121-0.43-0.301-0.557-0.537C166.001,98.46,165.938,98.173,165.938,97.834z M166.736,97.876
			c0,0.291,0.068,0.517,0.207,0.671c0.138,0.155,0.31,0.23,0.514,0.23c0.201,0,0.373-0.075,0.51-0.23
			c0.139-0.154,0.207-0.381,0.207-0.677c0-0.287-0.068-0.511-0.207-0.664c-0.137-0.156-0.309-0.233-0.51-0.233
			c-0.204,0-0.376,0.077-0.514,0.233C166.805,97.359,166.736,97.584,166.736,97.876z M167.062,96.045l0.381-0.829h0.873l-0.76,0.829
			H167.062z"/>
		<path fill="#FFFFFF" d="M172.258,99.348h-0.775v-1.503c0-0.315-0.017-0.521-0.051-0.614c-0.033-0.095-0.089-0.168-0.164-0.217
			c-0.07-0.054-0.162-0.08-0.269-0.08c-0.135,0-0.256,0.039-0.362,0.11c-0.105,0.074-0.181,0.172-0.219,0.295
			c-0.042,0.122-0.061,0.347-0.061,0.677v1.332h-0.779v-2.941h0.724v0.432c0.259-0.333,0.579-0.499,0.97-0.499
			c0.174,0,0.33,0.03,0.472,0.093c0.143,0.062,0.251,0.142,0.321,0.237c0.074,0.097,0.125,0.204,0.153,0.327
			c0.028,0.121,0.04,0.297,0.04,0.523V99.348z"/>
		<path fill="#FFFFFF" d="M174.632,99.348v-4.062h1.315c0.498,0,0.824,0.021,0.977,0.062c0.233,0.061,0.428,0.19,0.584,0.396
			c0.157,0.205,0.234,0.469,0.234,0.791c0,0.25-0.045,0.461-0.135,0.629c-0.092,0.171-0.207,0.304-0.344,0.401
			c-0.141,0.097-0.283,0.16-0.425,0.19c-0.196,0.04-0.481,0.06-0.854,0.06h-0.533v1.533H174.632L174.632,99.348z M175.452,95.973
			v1.153h0.45c0.32,0,0.537-0.022,0.646-0.063c0.108-0.043,0.194-0.109,0.256-0.199c0.062-0.09,0.094-0.196,0.094-0.316
			c0-0.146-0.043-0.27-0.131-0.365c-0.086-0.095-0.197-0.156-0.33-0.181c-0.098-0.019-0.295-0.026-0.59-0.026h-0.396V95.973z"/>
		<path fill="#FFFFFF" d="M180.35,99.348v-0.44c-0.106,0.157-0.25,0.28-0.425,0.372c-0.175,0.09-0.358,0.135-0.552,0.135
			c-0.199,0-0.375-0.043-0.531-0.13s-0.271-0.21-0.342-0.366s-0.105-0.373-0.105-0.65v-1.86h0.778v1.351
			c0,0.415,0.015,0.667,0.043,0.762c0.029,0.094,0.082,0.168,0.157,0.222c0.074,0.054,0.173,0.083,0.287,0.083
			c0.135,0,0.252-0.037,0.359-0.111c0.104-0.072,0.176-0.162,0.215-0.271c0.037-0.107,0.059-0.371,0.059-0.793v-1.24h0.777v2.941
			h-0.721V99.348z M179.339,96.045l0.384-0.829h0.873l-0.763,0.829H179.339z"/>
		<path fill="#FFFFFF" d="M181.844,99.348v-4.062h0.779v1.462c0.24-0.273,0.523-0.41,0.854-0.41c0.358,0,0.653,0.13,0.89,0.391
			c0.233,0.258,0.352,0.631,0.352,1.116c0,0.505-0.12,0.892-0.358,1.162s-0.528,0.406-0.871,0.406c-0.168,0-0.334-0.043-0.497-0.126
			c-0.163-0.084-0.306-0.208-0.423-0.372v0.433H181.844z M182.617,97.812c0,0.306,0.048,0.529,0.143,0.677
			c0.135,0.204,0.315,0.309,0.54,0.309c0.171,0,0.317-0.071,0.438-0.22c0.121-0.146,0.181-0.378,0.181-0.693
			c0-0.337-0.06-0.58-0.183-0.728c-0.122-0.148-0.277-0.226-0.467-0.226c-0.188,0-0.343,0.072-0.467,0.219
			C182.68,97.296,182.617,97.518,182.617,97.812z"/>
		<path fill="#FFFFFF" d="M185.343,99.348v-4.062h0.779v4.062H185.343z"/>
		<path fill="#FFFFFF" d="M186.922,96.007v-0.721h0.777v0.721H186.922z M186.922,99.348v-2.941h0.777v2.941H186.922z"/>
		<path fill="#FFFFFF" d="M191.062,97.273l-0.768,0.14c-0.025-0.152-0.086-0.269-0.177-0.347c-0.091-0.077-0.211-0.116-0.354-0.116
			c-0.195,0-0.351,0.067-0.466,0.2c-0.114,0.136-0.173,0.357-0.173,0.673c0,0.35,0.059,0.596,0.178,0.739
			c0.116,0.146,0.273,0.215,0.471,0.215c0.148,0,0.27-0.041,0.363-0.125s0.161-0.229,0.199-0.434l0.766,0.131
			c-0.08,0.351-0.232,0.615-0.459,0.795c-0.224,0.18-0.526,0.269-0.906,0.269c-0.43,0-0.771-0.136-1.028-0.406
			c-0.254-0.271-0.383-0.647-0.383-1.128c0-0.484,0.13-0.863,0.385-1.136c0.259-0.271,0.604-0.405,1.041-0.405
			c0.358,0,0.646,0.077,0.856,0.23C190.818,96.723,190.969,96.959,191.062,97.273z"/>
		<path fill="#FFFFFF" d="M192.232,97.302l-0.705-0.127c0.078-0.284,0.216-0.493,0.41-0.631c0.194-0.137,0.48-0.206,0.862-0.206
			c0.349,0,0.607,0.041,0.777,0.124c0.171,0.082,0.289,0.187,0.358,0.312c0.068,0.129,0.104,0.36,0.104,0.699l-0.009,0.907
			c0,0.259,0.013,0.448,0.036,0.571c0.025,0.122,0.072,0.257,0.141,0.396h-0.77c-0.021-0.053-0.047-0.129-0.076-0.229
			c-0.012-0.048-0.022-0.078-0.027-0.093c-0.132,0.13-0.275,0.227-0.426,0.289c-0.151,0.066-0.312,0.099-0.485,0.099
			c-0.303,0-0.542-0.082-0.715-0.246c-0.174-0.164-0.265-0.372-0.265-0.623c0-0.166,0.041-0.313,0.119-0.444
			c0.08-0.132,0.192-0.23,0.336-0.3c0.143-0.069,0.35-0.129,0.617-0.181c0.363-0.069,0.617-0.133,0.758-0.192V97.35
			c0-0.148-0.037-0.257-0.112-0.32c-0.072-0.063-0.211-0.096-0.417-0.096c-0.139,0-0.246,0.027-0.325,0.082
			C192.346,97.068,192.281,97.167,192.232,97.302z M193.275,97.936c-0.101,0.032-0.256,0.071-0.476,0.119
			c-0.216,0.045-0.356,0.092-0.423,0.135c-0.102,0.071-0.152,0.164-0.152,0.273c0,0.107,0.041,0.204,0.123,0.282
			c0.081,0.08,0.184,0.119,0.311,0.119c0.139,0,0.273-0.046,0.4-0.138c0.096-0.069,0.157-0.156,0.187-0.259
			c0.021-0.065,0.03-0.192,0.03-0.38V97.936L193.275,97.936z"/>
		<path fill="#FFFFFF" d="M196.018,96.405h0.826l0.705,2.09l0.686-2.09h0.807l-1.037,2.829l-0.188,0.515
			c-0.067,0.172-0.133,0.303-0.193,0.394c-0.062,0.092-0.134,0.164-0.214,0.221s-0.181,0.101-0.298,0.131
			c-0.116,0.033-0.248,0.049-0.396,0.049c-0.15,0-0.296-0.016-0.439-0.049l-0.067-0.609c0.12,0.025,0.229,0.037,0.328,0.037
			c0.181,0,0.313-0.054,0.401-0.16c0.088-0.104,0.152-0.242,0.197-0.406L196.018,96.405z"/>
		<path fill="#FFFFFF" d="M25.906,106.913v-4.062h1.314c0.5,0,0.826,0.021,0.978,0.061c0.231,0.062,0.428,0.191,0.583,0.396
			c0.156,0.203,0.237,0.469,0.237,0.791c0,0.25-0.048,0.459-0.136,0.629c-0.091,0.17-0.207,0.304-0.346,0.4
			c-0.141,0.096-0.281,0.161-0.426,0.193c-0.196,0.037-0.479,0.058-0.852,0.058h-0.533v1.532L25.906,106.913L25.906,106.913z
			 M26.727,103.538v1.151h0.449c0.323,0,0.537-0.021,0.647-0.062c0.109-0.043,0.193-0.109,0.257-0.2
			c0.063-0.09,0.092-0.194,0.092-0.313c0-0.148-0.042-0.271-0.129-0.367c-0.087-0.096-0.196-0.155-0.331-0.18
			c-0.097-0.019-0.294-0.027-0.589-0.027L26.727,103.538L26.727,103.538z"/>
		<path fill="#FFFFFF" d="M30.431,106.913h-0.778v-2.942h0.723v0.42c0.124-0.199,0.234-0.33,0.334-0.394s0.21-0.095,0.337-0.095
			c0.178,0,0.348,0.05,0.512,0.146l-0.24,0.68c-0.132-0.084-0.254-0.127-0.365-0.127c-0.109,0-0.2,0.029-0.276,0.09
			c-0.076,0.06-0.137,0.168-0.18,0.326c-0.043,0.156-0.065,0.484-0.065,0.985v0.91H30.431z"/>
		<path fill="#FFFFFF" d="M31.712,105.398c0-0.258,0.065-0.508,0.193-0.75c0.127-0.241,0.308-0.426,0.542-0.555
			c0.232-0.127,0.494-0.191,0.781-0.191c0.446,0,0.811,0.146,1.095,0.435c0.284,0.289,0.426,0.655,0.426,1.097
			c0,0.446-0.143,0.813-0.43,1.106c-0.287,0.293-0.648,0.438-1.084,0.438c-0.271,0-0.528-0.062-0.773-0.184
			c-0.243-0.121-0.43-0.301-0.557-0.535C31.777,106.023,31.712,105.736,31.712,105.398z M32.511,105.441
			c0,0.291,0.069,0.516,0.21,0.67c0.138,0.156,0.308,0.232,0.512,0.232c0.202,0,0.373-0.076,0.512-0.232
			c0.137-0.154,0.204-0.381,0.204-0.676c0-0.289-0.067-0.511-0.204-0.664c-0.139-0.155-0.31-0.233-0.512-0.233
			c-0.204,0-0.374,0.078-0.512,0.233C32.58,104.926,32.511,105.148,32.511,105.441z"/>
		<path fill="#FFFFFF" d="M36.709,103.971v0.62h-0.531v1.187c0,0.24,0.004,0.379,0.014,0.418c0.012,0.041,0.034,0.074,0.071,0.102
			c0.035,0.025,0.078,0.038,0.131,0.038c0.071,0,0.176-0.024,0.312-0.075l0.068,0.604c-0.182,0.077-0.387,0.116-0.617,0.116
			c-0.14,0-0.267-0.023-0.378-0.071c-0.114-0.048-0.196-0.107-0.249-0.183c-0.053-0.074-0.088-0.176-0.108-0.305
			c-0.017-0.089-0.025-0.271-0.025-0.547v-1.283h-0.356v-0.619h0.356v-0.586l0.782-0.453v1.039h0.53V103.971z"/>
		<path fill="#FFFFFF" d="M38.953,105.977l0.777,0.131c-0.103,0.285-0.259,0.5-0.474,0.648c-0.217,0.148-0.485,0.225-0.809,0.225
			c-0.513,0-0.891-0.168-1.136-0.502c-0.192-0.269-0.288-0.605-0.288-1.015c0-0.487,0.124-0.871,0.38-1.146
			c0.256-0.276,0.577-0.414,0.966-0.414c0.439,0,0.784,0.145,1.038,0.434c0.253,0.289,0.373,0.732,0.362,1.33h-1.951
			c0.006,0.23,0.069,0.408,0.188,0.537c0.121,0.128,0.27,0.193,0.45,0.193c0.122,0,0.224-0.033,0.306-0.102
			C38.848,106.23,38.911,106.124,38.953,105.977z M38.997,105.189c-0.006-0.227-0.063-0.397-0.174-0.516
			c-0.112-0.117-0.246-0.174-0.405-0.174c-0.17,0-0.311,0.061-0.42,0.186c-0.111,0.123-0.167,0.291-0.163,0.504H38.997z"/>
		<path fill="#FFFFFF" d="M42.972,104.841l-0.77,0.138c-0.024-0.151-0.083-0.269-0.175-0.346c-0.092-0.076-0.21-0.115-0.356-0.115
			c-0.194,0-0.349,0.064-0.465,0.198c-0.113,0.136-0.172,0.358-0.172,0.673c0,0.35,0.059,0.596,0.176,0.74s0.275,0.216,0.473,0.216
			c0.147,0,0.269-0.042,0.363-0.127c0.093-0.084,0.159-0.228,0.2-0.434l0.763,0.131c-0.079,0.353-0.232,0.616-0.457,0.796
			c-0.224,0.18-0.527,0.27-0.906,0.27c-0.431,0-0.771-0.137-1.028-0.408c-0.257-0.271-0.383-0.646-0.383-1.127
			c0-0.485,0.126-0.864,0.383-1.135c0.258-0.271,0.605-0.406,1.043-0.406c0.357,0,0.644,0.076,0.854,0.231
			C42.726,104.288,42.878,104.523,42.972,104.841z"/>
		<path fill="#FFFFFF" d="M46.125,104.841l-0.766,0.138c-0.027-0.151-0.086-0.269-0.177-0.346c-0.09-0.076-0.209-0.115-0.356-0.115
			c-0.192,0-0.349,0.064-0.463,0.198c-0.117,0.136-0.172,0.358-0.172,0.673c0,0.35,0.057,0.596,0.174,0.74
			c0.118,0.145,0.274,0.216,0.473,0.216c0.148,0,0.271-0.042,0.364-0.127c0.094-0.084,0.16-0.228,0.198-0.434l0.765,0.131
			c-0.079,0.353-0.231,0.616-0.457,0.796s-0.526,0.27-0.905,0.27c-0.432,0-0.774-0.137-1.031-0.408
			c-0.254-0.271-0.382-0.646-0.382-1.127c0-0.485,0.128-0.864,0.386-1.135c0.255-0.271,0.603-0.406,1.04-0.406
			c0.359,0,0.645,0.076,0.855,0.231C45.882,104.288,46.034,104.523,46.125,104.841z"/>
		<path fill="#FFFFFF" d="M46.717,103.57v-0.719h0.777v0.719H46.717z M46.717,106.913v-2.942h0.777v2.942H46.717z"/>
		<path fill="#FFFFFF" d="M48.112,105.398c0-0.258,0.064-0.508,0.192-0.75c0.126-0.241,0.309-0.426,0.541-0.555
			c0.234-0.127,0.494-0.191,0.783-0.191c0.444,0,0.809,0.146,1.094,0.435c0.284,0.289,0.428,0.655,0.428,1.097
			c0,0.446-0.145,0.813-0.432,1.106c-0.288,0.293-0.648,0.438-1.085,0.438c-0.27,0-0.526-0.062-0.771-0.184
			c-0.246-0.121-0.432-0.301-0.558-0.535C48.177,106.023,48.112,105.736,48.112,105.398z M48.91,105.441
			c0,0.291,0.07,0.516,0.208,0.67c0.139,0.156,0.31,0.232,0.512,0.232c0.205,0,0.375-0.076,0.513-0.232
			c0.139-0.154,0.206-0.381,0.206-0.676c0-0.289-0.067-0.511-0.206-0.664c-0.138-0.155-0.308-0.233-0.513-0.233
			c-0.202,0-0.373,0.078-0.512,0.233C48.98,104.926,48.91,105.148,48.91,105.441z M49.237,103.609l0.382-0.827h0.874l-0.762,0.827
			H49.237z"/>
		<path fill="#FFFFFF" d="M54.436,106.913h-0.779v-1.502c0-0.318-0.017-0.522-0.049-0.617c-0.033-0.093-0.087-0.164-0.161-0.217
			c-0.076-0.052-0.166-0.076-0.271-0.076c-0.135,0-0.255,0.035-0.362,0.108c-0.107,0.076-0.183,0.173-0.221,0.295
			c-0.04,0.121-0.061,0.348-0.061,0.675v1.334h-0.778v-2.942h0.724v0.432c0.257-0.332,0.581-0.498,0.971-0.498
			c0.17,0,0.328,0.029,0.471,0.093c0.142,0.062,0.249,0.142,0.322,0.239c0.072,0.095,0.123,0.203,0.152,0.326
			c0.029,0.121,0.043,0.295,0.043,0.521L54.436,106.913L54.436,106.913z"/>
		<path fill="#FFFFFF" d="M59.501,106.913h-0.723v-0.435c-0.122,0.17-0.264,0.295-0.425,0.377c-0.164,0.082-0.33,0.123-0.494,0.123
			c-0.339,0-0.631-0.137-0.87-0.408c-0.242-0.273-0.362-0.652-0.362-1.141c0-0.498,0.117-0.878,0.352-1.137
			c0.235-0.262,0.53-0.391,0.89-0.391c0.327,0,0.612,0.137,0.854,0.41v-1.463h0.779L59.501,106.913L59.501,106.913z M57.423,105.378
			c0,0.313,0.045,0.541,0.131,0.681c0.124,0.205,0.299,0.307,0.524,0.307c0.18,0,0.332-0.076,0.457-0.229
			c0.127-0.153,0.189-0.381,0.189-0.682c0-0.34-0.062-0.583-0.183-0.731s-0.278-0.222-0.468-0.222c-0.188,0-0.34,0.072-0.466,0.219
			C57.485,104.866,57.423,105.085,57.423,105.378z"/>
		<path fill="#FFFFFF" d="M61.971,105.977l0.775,0.131c-0.099,0.285-0.256,0.5-0.472,0.648c-0.214,0.148-0.484,0.225-0.809,0.225
			c-0.511,0-0.888-0.168-1.134-0.502c-0.193-0.269-0.292-0.605-0.292-1.015c0-0.487,0.128-0.871,0.383-1.146
			c0.255-0.276,0.576-0.414,0.968-0.414c0.437,0,0.783,0.145,1.035,0.434s0.373,0.732,0.363,1.33h-1.951
			c0.005,0.23,0.067,0.408,0.188,0.537c0.121,0.128,0.27,0.193,0.448,0.193c0.123,0,0.225-0.033,0.309-0.102
			C61.866,106.23,61.93,106.124,61.971,105.977z M62.017,105.189c-0.006-0.227-0.064-0.397-0.177-0.516
			c-0.108-0.117-0.246-0.174-0.402-0.174c-0.172,0-0.31,0.061-0.422,0.186c-0.111,0.123-0.167,0.291-0.164,0.504H62.017z"/>
		<path fill="#FFFFFF" d="M65.002,102.852H66.5c0.34,0,0.597,0.024,0.773,0.078c0.238,0.069,0.444,0.194,0.613,0.373
			c0.17,0.18,0.299,0.398,0.389,0.657c0.088,0.26,0.132,0.58,0.132,0.961c0,0.334-0.041,0.623-0.124,0.863
			c-0.103,0.297-0.248,0.536-0.435,0.719c-0.144,0.14-0.335,0.246-0.577,0.324c-0.18,0.057-0.423,0.086-0.726,0.086h-1.544
			L65.002,102.852L65.002,102.852z M65.823,103.538v2.688h0.611c0.229,0,0.395-0.012,0.496-0.037c0.132-0.034,0.244-0.09,0.331-0.17
			c0.087-0.078,0.159-0.211,0.214-0.393c0.057-0.182,0.083-0.429,0.083-0.743c0-0.313-0.026-0.555-0.083-0.724
			c-0.055-0.167-0.132-0.299-0.231-0.395c-0.101-0.093-0.228-0.156-0.38-0.189c-0.114-0.025-0.337-0.039-0.673-0.039L65.823,103.538
			L65.823,103.538z"/>
		<path fill="#FFFFFF" d="M69.681,104.868l-0.707-0.127c0.078-0.285,0.215-0.496,0.408-0.632c0.195-0.139,0.482-0.207,0.866-0.207
			c0.346,0,0.604,0.041,0.775,0.123c0.17,0.084,0.288,0.188,0.357,0.314c0.071,0.125,0.105,0.357,0.105,0.695l-0.008,0.91
			c0,0.258,0.011,0.447,0.036,0.57c0.026,0.123,0.072,0.256,0.141,0.396h-0.771c-0.021-0.053-0.047-0.129-0.073-0.23
			c-0.014-0.046-0.023-0.076-0.03-0.092c-0.131,0.131-0.274,0.229-0.426,0.292c-0.151,0.063-0.313,0.097-0.484,0.097
			c-0.304,0-0.543-0.082-0.718-0.246c-0.173-0.164-0.261-0.373-0.261-0.625c0-0.166,0.039-0.313,0.117-0.443
			c0.082-0.13,0.193-0.23,0.335-0.299c0.144-0.069,0.35-0.131,0.62-0.182c0.364-0.068,0.615-0.133,0.756-0.19v-0.078
			c0-0.149-0.037-0.257-0.111-0.32c-0.073-0.063-0.212-0.094-0.416-0.094c-0.141,0-0.248,0.024-0.323,0.079
			C69.789,104.636,69.728,104.73,69.681,104.868z M70.721,105.499c-0.1,0.033-0.257,0.071-0.473,0.119
			c-0.215,0.048-0.356,0.094-0.425,0.137c-0.102,0.072-0.151,0.163-0.151,0.274c0,0.107,0.039,0.201,0.121,0.281
			s0.185,0.119,0.311,0.119c0.139,0,0.273-0.046,0.402-0.139c0.095-0.07,0.155-0.156,0.186-0.258
			c0.02-0.066,0.029-0.192,0.029-0.379V105.499z"/>
		<path fill="#FFFFFF" d="M73.603,103.971v0.62H73.07v1.187c0,0.24,0.006,0.379,0.015,0.418c0.012,0.041,0.034,0.074,0.07,0.102
			c0.036,0.025,0.08,0.038,0.132,0.038c0.071,0,0.176-0.024,0.313-0.075l0.065,0.604c-0.18,0.077-0.384,0.116-0.614,0.116
			c-0.141,0-0.265-0.023-0.378-0.071c-0.114-0.048-0.197-0.107-0.248-0.183c-0.054-0.074-0.091-0.176-0.111-0.305
			c-0.016-0.089-0.024-0.271-0.024-0.547v-1.283h-0.356v-0.619h0.356v-0.586l0.781-0.453v1.039h0.532V103.971z"/>
		<path fill="#FFFFFF" d="M73.964,105.398c0-0.258,0.063-0.508,0.19-0.75c0.127-0.241,0.307-0.426,0.542-0.555
			c0.233-0.127,0.494-0.191,0.783-0.191c0.443,0,0.808,0.146,1.093,0.435c0.285,0.289,0.427,0.655,0.427,1.097
			c0,0.446-0.146,0.813-0.432,1.106c-0.285,0.293-0.647,0.438-1.084,0.438c-0.269,0-0.528-0.062-0.771-0.184
			c-0.244-0.121-0.432-0.301-0.559-0.535C74.026,106.023,73.964,105.736,73.964,105.398z M74.762,105.441
			c0,0.291,0.068,0.516,0.207,0.67c0.139,0.156,0.308,0.232,0.512,0.232s0.376-0.076,0.512-0.232
			c0.137-0.154,0.207-0.381,0.207-0.676c0-0.289-0.07-0.511-0.207-0.664c-0.136-0.155-0.308-0.233-0.512-0.233
			s-0.373,0.078-0.512,0.233C74.83,104.926,74.762,105.148,74.762,105.441z"/>
		<path fill="#FFFFFF" d="M77.334,106.073l0.782-0.119c0.033,0.151,0.099,0.266,0.202,0.345s0.244,0.119,0.426,0.119
			c0.201,0,0.354-0.038,0.456-0.111c0.068-0.053,0.102-0.121,0.102-0.207c0-0.06-0.019-0.108-0.056-0.147
			c-0.039-0.036-0.126-0.071-0.26-0.103c-0.629-0.138-1.025-0.266-1.195-0.38c-0.232-0.159-0.348-0.38-0.348-0.663
			c0-0.254,0.099-0.469,0.302-0.643c0.201-0.173,0.514-0.262,0.936-0.262c0.403,0,0.702,0.066,0.898,0.197
			c0.195,0.131,0.33,0.324,0.403,0.582l-0.733,0.137c-0.031-0.114-0.092-0.202-0.179-0.264c-0.088-0.062-0.213-0.092-0.377-0.092
			c-0.202,0-0.351,0.027-0.438,0.086c-0.06,0.04-0.09,0.094-0.09,0.157c0,0.056,0.026,0.103,0.078,0.142
			c0.07,0.053,0.312,0.125,0.727,0.219c0.414,0.096,0.704,0.211,0.869,0.347c0.161,0.142,0.243,0.332,0.243,0.58
			c0,0.271-0.113,0.502-0.338,0.694c-0.226,0.194-0.559,0.291-1.001,0.291c-0.4,0-0.717-0.082-0.952-0.244
			C77.559,106.573,77.406,106.354,77.334,106.073z"/>
		<path fill="#FFFFFF" d="M82.347,106.913v-4.062h1.316c0.498,0,0.822,0.021,0.975,0.061c0.233,0.062,0.429,0.191,0.587,0.396
			c0.154,0.203,0.233,0.469,0.233,0.791c0,0.25-0.045,0.459-0.136,0.629c-0.091,0.17-0.206,0.304-0.345,0.4
			c-0.141,0.096-0.283,0.161-0.425,0.193c-0.197,0.037-0.479,0.058-0.853,0.058h-0.533v1.532L82.347,106.913L82.347,106.913z
			 M83.167,103.538v1.151h0.448c0.324,0,0.54-0.021,0.648-0.062c0.109-0.043,0.195-0.109,0.256-0.2
			c0.063-0.09,0.095-0.194,0.095-0.313c0-0.148-0.045-0.271-0.132-0.367c-0.086-0.096-0.196-0.155-0.328-0.18
			c-0.099-0.019-0.296-0.027-0.591-0.027L83.167,103.538L83.167,103.538z"/>
		<path fill="#FFFFFF" d="M87.829,105.977l0.775,0.131c-0.099,0.285-0.255,0.5-0.472,0.648c-0.216,0.148-0.484,0.225-0.807,0.225
			c-0.513,0-0.891-0.168-1.137-0.502c-0.195-0.269-0.293-0.605-0.293-1.015c0-0.487,0.129-0.871,0.385-1.146
			c0.254-0.276,0.577-0.414,0.966-0.414c0.438,0,0.784,0.145,1.036,0.434c0.255,0.289,0.375,0.732,0.364,1.33h-1.951
			c0.007,0.23,0.068,0.408,0.188,0.537c0.12,0.128,0.269,0.193,0.449,0.193c0.122,0,0.223-0.033,0.307-0.102
			C87.725,106.23,87.789,106.124,87.829,105.977z M87.874,105.189c-0.005-0.227-0.064-0.397-0.174-0.516
			c-0.111-0.117-0.245-0.174-0.405-0.174c-0.171,0-0.31,0.061-0.421,0.186c-0.109,0.123-0.165,0.291-0.163,0.504H87.874z"/>
		<path fill="#FFFFFF" d="M90.026,106.913h-0.778v-2.942h0.723v0.42c0.125-0.199,0.235-0.33,0.335-0.394
			c0.099-0.063,0.211-0.095,0.335-0.095c0.178,0,0.35,0.05,0.514,0.146l-0.24,0.68c-0.132-0.084-0.254-0.127-0.365-0.127
			c-0.109,0-0.203,0.029-0.277,0.09c-0.076,0.06-0.136,0.168-0.18,0.326c-0.044,0.156-0.065,0.484-0.065,0.985v0.91H90.026z"/>
		<path fill="#FFFFFF" d="M91.215,106.073l0.783-0.119c0.033,0.151,0.101,0.266,0.201,0.345c0.103,0.079,0.245,0.119,0.426,0.119
			c0.202,0,0.353-0.038,0.455-0.111c0.069-0.053,0.102-0.121,0.102-0.207c0-0.06-0.018-0.108-0.055-0.147
			c-0.039-0.036-0.125-0.071-0.259-0.103c-0.63-0.138-1.026-0.266-1.196-0.38c-0.232-0.159-0.349-0.38-0.349-0.663
			c0-0.254,0.101-0.469,0.303-0.643c0.199-0.173,0.514-0.262,0.937-0.262c0.401,0,0.7,0.066,0.896,0.197
			c0.195,0.131,0.33,0.324,0.404,0.582l-0.733,0.137c-0.032-0.114-0.091-0.202-0.179-0.264c-0.088-0.062-0.213-0.092-0.375-0.092
			c-0.206,0-0.352,0.027-0.441,0.086c-0.059,0.04-0.088,0.094-0.088,0.157c0,0.056,0.025,0.103,0.079,0.142
			c0.068,0.053,0.311,0.125,0.727,0.219c0.413,0.096,0.703,0.211,0.867,0.347c0.162,0.142,0.245,0.332,0.245,0.58
			c0,0.271-0.113,0.502-0.338,0.694c-0.227,0.194-0.561,0.291-1.002,0.291c-0.399,0-0.717-0.082-0.952-0.244
			C91.439,106.573,91.287,106.354,91.215,106.073z"/>
		<path fill="#FFFFFF" d="M94.467,105.398c0-0.258,0.063-0.508,0.19-0.75c0.128-0.241,0.308-0.426,0.541-0.555
			c0.233-0.127,0.494-0.191,0.783-0.191c0.446,0,0.81,0.146,1.094,0.435c0.285,0.289,0.428,0.655,0.428,1.097
			c0,0.446-0.146,0.813-0.431,1.106c-0.289,0.293-0.65,0.438-1.085,0.438c-0.269,0-0.527-0.062-0.772-0.184
			c-0.246-0.121-0.43-0.301-0.558-0.535C94.529,106.023,94.467,105.736,94.467,105.398z M95.264,105.441
			c0,0.291,0.068,0.516,0.209,0.67c0.138,0.156,0.308,0.232,0.512,0.232c0.202,0,0.372-0.076,0.512-0.232
			c0.136-0.154,0.205-0.381,0.205-0.676c0-0.289-0.069-0.511-0.205-0.664c-0.14-0.155-0.31-0.233-0.512-0.233
			c-0.204,0-0.374,0.078-0.512,0.233C95.332,104.926,95.264,105.148,95.264,105.441z"/>
		<path fill="#FFFFFF" d="M100.787,106.913h-0.777v-1.502c0-0.318-0.018-0.522-0.05-0.617c-0.033-0.093-0.088-0.164-0.163-0.217
			c-0.074-0.052-0.164-0.076-0.27-0.076c-0.135,0-0.256,0.035-0.363,0.108c-0.106,0.076-0.18,0.173-0.221,0.295
			c-0.038,0.121-0.058,0.348-0.058,0.675v1.334h-0.778v-2.942h0.722v0.432c0.257-0.332,0.581-0.498,0.971-0.498
			c0.171,0,0.328,0.029,0.469,0.093c0.143,0.062,0.25,0.142,0.322,0.239c0.074,0.095,0.126,0.203,0.154,0.326
			c0.028,0.121,0.042,0.295,0.042,0.521V106.913z"/>
		<path fill="#FFFFFF" d="M102.162,104.868l-0.708-0.127c0.076-0.285,0.216-0.496,0.407-0.632c0.196-0.139,0.483-0.207,0.866-0.207
			c0.346,0,0.605,0.041,0.775,0.123c0.17,0.084,0.289,0.188,0.359,0.314c0.069,0.125,0.104,0.357,0.104,0.695l-0.008,0.91
			c0,0.258,0.011,0.447,0.036,0.57c0.027,0.123,0.072,0.256,0.14,0.396h-0.768c-0.021-0.053-0.048-0.129-0.075-0.23
			c-0.014-0.046-0.022-0.076-0.028-0.092c-0.135,0.131-0.275,0.229-0.427,0.292c-0.153,0.063-0.313,0.097-0.485,0.097
			c-0.302,0-0.542-0.082-0.716-0.246c-0.175-0.164-0.262-0.373-0.262-0.625c0-0.166,0.039-0.313,0.118-0.443
			c0.081-0.13,0.191-0.23,0.335-0.299c0.142-0.069,0.35-0.131,0.619-0.182c0.363-0.068,0.616-0.133,0.756-0.19v-0.078
			c0-0.149-0.036-0.257-0.111-0.32c-0.074-0.063-0.212-0.094-0.417-0.094c-0.14,0-0.247,0.024-0.324,0.079
			C102.269,104.636,102.209,104.73,102.162,104.868z M103.201,105.499c-0.099,0.033-0.258,0.071-0.474,0.119
			c-0.216,0.048-0.358,0.094-0.425,0.137c-0.102,0.072-0.152,0.163-0.152,0.274c0,0.107,0.04,0.201,0.122,0.281
			s0.187,0.119,0.312,0.119c0.141,0,0.273-0.046,0.402-0.139c0.094-0.07,0.154-0.156,0.186-0.258
			c0.018-0.066,0.029-0.192,0.029-0.379V105.499z"/>
		<path fill="#FFFFFF" d="M104.732,106.913v-4.062h0.778v4.062H104.732z"/>
		<path fill="#FFFFFF" d="M108.014,105.977l0.776,0.131c-0.1,0.285-0.258,0.5-0.473,0.648c-0.216,0.148-0.484,0.225-0.809,0.225
			c-0.511,0-0.89-0.168-1.136-0.502c-0.193-0.269-0.29-0.605-0.29-1.015c0-0.487,0.127-0.871,0.381-1.146
			c0.256-0.276,0.579-0.414,0.969-0.414c0.437,0,0.782,0.145,1.036,0.434c0.253,0.289,0.373,0.732,0.363,1.33h-1.951
			c0.004,0.23,0.068,0.408,0.188,0.537c0.12,0.128,0.269,0.193,0.448,0.193c0.121,0,0.224-0.033,0.308-0.102
			C107.909,106.23,107.97,106.124,108.014,105.977z M108.058,105.189c-0.004-0.227-0.064-0.397-0.174-0.516
			c-0.11-0.117-0.246-0.174-0.405-0.174c-0.168,0-0.31,0.061-0.421,0.186c-0.112,0.123-0.165,0.291-0.163,0.504H108.058z"/>
		<path fill="#FFFFFF" d="M109.189,106.073l0.783-0.119c0.032,0.151,0.102,0.266,0.202,0.345c0.1,0.079,0.244,0.119,0.427,0.119
			c0.2,0,0.353-0.038,0.455-0.111c0.067-0.053,0.101-0.121,0.101-0.207c0-0.06-0.017-0.108-0.054-0.147
			c-0.037-0.036-0.126-0.071-0.26-0.103c-0.63-0.138-1.028-0.266-1.195-0.38c-0.233-0.159-0.35-0.38-0.35-0.663
			c0-0.254,0.103-0.469,0.303-0.643c0.2-0.173,0.514-0.262,0.937-0.262c0.403,0,0.702,0.066,0.898,0.197s0.33,0.324,0.402,0.582
			l-0.732,0.137c-0.032-0.114-0.093-0.202-0.18-0.264c-0.088-0.062-0.213-0.092-0.374-0.092c-0.204,0-0.353,0.027-0.443,0.086
			c-0.06,0.04-0.086,0.094-0.086,0.157c0,0.056,0.024,0.103,0.075,0.142c0.071,0.053,0.313,0.125,0.729,0.219
			c0.415,0.096,0.703,0.211,0.867,0.347c0.162,0.142,0.244,0.332,0.244,0.58c0,0.271-0.113,0.502-0.338,0.694
			c-0.225,0.194-0.558,0.291-1,0.291c-0.401,0-0.719-0.082-0.952-0.244C109.415,106.573,109.263,106.354,109.189,106.073z"/>
		<path fill="#FFFFFF" d="M116.896,106.913h-0.723v-0.435c-0.119,0.17-0.262,0.295-0.426,0.377
			c-0.163,0.082-0.327,0.123-0.494,0.123c-0.338,0-0.629-0.137-0.868-0.408c-0.241-0.273-0.361-0.652-0.361-1.141
			c0-0.498,0.116-0.878,0.351-1.137c0.233-0.262,0.531-0.391,0.89-0.391c0.328,0,0.613,0.137,0.854,0.41v-1.463h0.777V106.913z
			 M114.818,105.378c0,0.313,0.044,0.541,0.131,0.681c0.124,0.205,0.3,0.307,0.525,0.307c0.18,0,0.332-0.076,0.457-0.229
			s0.188-0.381,0.188-0.682c0-0.34-0.062-0.583-0.182-0.731c-0.123-0.148-0.278-0.222-0.47-0.222c-0.186,0-0.339,0.072-0.465,0.219
			C114.882,104.866,114.818,105.085,114.818,105.378z"/>
		<path fill="#FFFFFF" d="M119.368,105.977l0.774,0.131c-0.101,0.285-0.258,0.5-0.474,0.648c-0.214,0.148-0.483,0.225-0.808,0.225
			c-0.512,0-0.891-0.168-1.135-0.502c-0.193-0.269-0.291-0.605-0.291-1.015c0-0.487,0.127-0.871,0.383-1.146
			c0.255-0.276,0.576-0.414,0.968-0.414c0.438,0,0.78,0.145,1.034,0.434s0.373,0.732,0.363,1.33h-1.949
			c0.004,0.23,0.066,0.408,0.188,0.537c0.119,0.128,0.27,0.193,0.448,0.193c0.122,0,0.226-0.033,0.307-0.102
			C119.262,106.23,119.326,106.124,119.368,105.977z M119.411,105.189c-0.005-0.227-0.063-0.397-0.175-0.516
			c-0.11-0.117-0.245-0.174-0.402-0.174c-0.172,0-0.312,0.061-0.422,0.186c-0.111,0.123-0.166,0.291-0.164,0.504H119.411z"/>
		<path fill="#FFFFFF" d="M120.818,106.913v-4.062h0.779v4.062H120.818z"/>
		<path fill="#FFFFFF" d="M123.979,106.913v-4.062h3.013v0.687H124.8v0.899h2.038v0.686H124.8v1.104h2.269v0.687H123.979
			L123.979,106.913z"/>
		<path fill="#FFFFFF" d="M127.482,106.073l0.781-0.119c0.032,0.151,0.101,0.266,0.201,0.345c0.104,0.079,0.245,0.119,0.428,0.119
			c0.199,0,0.354-0.038,0.457-0.111c0.065-0.053,0.101-0.121,0.101-0.207c0-0.06-0.019-0.108-0.056-0.147
			c-0.039-0.036-0.127-0.071-0.261-0.103c-0.629-0.138-1.024-0.266-1.194-0.38c-0.232-0.159-0.351-0.38-0.351-0.663
			c0-0.254,0.103-0.469,0.304-0.643c0.201-0.173,0.515-0.262,0.935-0.262c0.405,0,0.703,0.066,0.899,0.197s0.332,0.324,0.403,0.582
			l-0.733,0.137c-0.029-0.114-0.092-0.202-0.178-0.264c-0.089-0.062-0.214-0.092-0.377-0.092c-0.203,0-0.352,0.027-0.441,0.086
			c-0.058,0.04-0.086,0.094-0.086,0.157c0,0.056,0.026,0.103,0.076,0.142c0.07,0.053,0.313,0.125,0.729,0.219
			c0.412,0.096,0.704,0.211,0.866,0.347c0.164,0.142,0.246,0.332,0.246,0.58c0,0.271-0.113,0.502-0.34,0.694
			c-0.226,0.194-0.559,0.291-1,0.291c-0.4,0-0.719-0.082-0.951-0.244C127.707,106.573,127.555,106.354,127.482,106.073z"/>
		<path fill="#FFFFFF" d="M132.262,103.971v0.62h-0.529v1.187c0,0.24,0.006,0.379,0.013,0.418c0.012,0.041,0.032,0.074,0.069,0.102
			c0.037,0.025,0.08,0.038,0.133,0.038c0.072,0,0.178-0.024,0.312-0.075l0.067,0.604c-0.183,0.077-0.386,0.116-0.617,0.116
			c-0.14,0-0.267-0.023-0.377-0.071c-0.112-0.048-0.196-0.107-0.249-0.183c-0.052-0.074-0.088-0.176-0.107-0.305
			c-0.018-0.089-0.025-0.271-0.025-0.547v-1.283h-0.358v-0.619h0.358v-0.586l0.781-0.453v1.039h0.529V103.971z"/>
		<path fill="#FFFFFF" d="M133.385,104.868l-0.705-0.127c0.078-0.285,0.215-0.496,0.409-0.632c0.193-0.139,0.481-0.207,0.862-0.207
			c0.348,0,0.607,0.041,0.777,0.123c0.17,0.084,0.289,0.188,0.358,0.314c0.067,0.125,0.104,0.357,0.104,0.695l-0.008,0.91
			c0,0.258,0.012,0.447,0.037,0.57c0.023,0.123,0.069,0.256,0.139,0.396h-0.77c-0.02-0.053-0.048-0.129-0.076-0.23
			c-0.013-0.046-0.021-0.076-0.027-0.092c-0.133,0.131-0.273,0.229-0.428,0.292c-0.149,0.063-0.312,0.097-0.483,0.097
			c-0.304,0-0.541-0.082-0.716-0.246c-0.176-0.164-0.262-0.373-0.262-0.625c0-0.166,0.038-0.313,0.117-0.443s0.192-0.23,0.337-0.299
			c0.14-0.069,0.349-0.131,0.616-0.182c0.363-0.068,0.617-0.133,0.757-0.19v-0.078c0-0.149-0.036-0.257-0.11-0.32
			c-0.073-0.063-0.213-0.094-0.418-0.094c-0.138,0-0.246,0.024-0.326,0.079C133.495,104.636,133.434,104.73,133.385,104.868z
			 M134.426,105.499c-0.099,0.033-0.26,0.071-0.475,0.119s-0.356,0.094-0.422,0.137c-0.104,0.072-0.153,0.163-0.153,0.274
			c0,0.107,0.042,0.201,0.121,0.281c0.081,0.08,0.187,0.119,0.313,0.119c0.139,0,0.271-0.046,0.398-0.139
			c0.096-0.07,0.155-0.156,0.186-0.258c0.021-0.066,0.03-0.192,0.03-0.379L134.426,105.499L134.426,105.499z"/>
		<path fill="#FFFFFF" d="M138.657,106.913h-0.724v-0.435c-0.119,0.17-0.264,0.295-0.426,0.377c-0.164,0.082-0.33,0.123-0.494,0.123
			c-0.338,0-0.628-0.137-0.867-0.408c-0.242-0.273-0.362-0.652-0.362-1.141c0-0.498,0.116-0.878,0.352-1.137
			c0.234-0.262,0.53-0.391,0.89-0.391c0.33,0,0.613,0.137,0.854,0.41v-1.463h0.778V106.913L138.657,106.913z M136.578,105.378
			c0,0.313,0.044,0.541,0.131,0.681c0.125,0.205,0.301,0.307,0.525,0.307c0.181,0,0.332-0.076,0.457-0.229
			c0.127-0.153,0.189-0.381,0.189-0.682c0-0.34-0.062-0.583-0.184-0.731c-0.122-0.148-0.277-0.222-0.469-0.222
			c-0.186,0-0.338,0.072-0.465,0.219C136.643,104.866,136.578,105.085,136.578,105.378z"/>
		<path fill="#FFFFFF" d="M139.245,105.398c0-0.258,0.063-0.508,0.19-0.75c0.127-0.241,0.308-0.426,0.541-0.555
			c0.232-0.127,0.494-0.191,0.783-0.191c0.446,0,0.811,0.146,1.094,0.435c0.285,0.289,0.428,0.655,0.428,1.097
			c0,0.446-0.146,0.813-0.434,1.106c-0.285,0.293-0.647,0.438-1.082,0.438c-0.271,0-0.529-0.062-0.772-0.184
			c-0.244-0.121-0.431-0.301-0.558-0.535C139.309,106.023,139.245,105.736,139.245,105.398z M140.043,105.441
			c0,0.291,0.068,0.516,0.207,0.67c0.139,0.156,0.309,0.232,0.514,0.232c0.201,0,0.373-0.076,0.51-0.232
			c0.139-0.154,0.207-0.381,0.207-0.676c0-0.289-0.068-0.511-0.207-0.664c-0.137-0.155-0.309-0.233-0.51-0.233
			c-0.205,0-0.375,0.078-0.514,0.233C140.111,104.926,140.043,105.148,140.043,105.441z"/>
		<path fill="#FFFFFF" d="M147.165,106.913h-0.724v-0.435c-0.121,0.17-0.262,0.295-0.424,0.377
			c-0.164,0.082-0.328,0.123-0.496,0.123c-0.338,0-0.629-0.137-0.869-0.408c-0.239-0.273-0.361-0.652-0.361-1.141
			c0-0.498,0.119-0.878,0.354-1.137c0.234-0.262,0.532-0.391,0.89-0.391c0.327,0,0.614,0.137,0.854,0.41v-1.463h0.777
			L147.165,106.913L147.165,106.913z M145.088,105.378c0,0.313,0.042,0.541,0.13,0.681c0.126,0.205,0.302,0.307,0.526,0.307
			c0.178,0,0.332-0.076,0.457-0.229c0.127-0.153,0.188-0.381,0.188-0.682c0-0.34-0.061-0.583-0.183-0.731s-0.278-0.222-0.467-0.222
			c-0.185,0-0.341,0.072-0.466,0.219C145.15,104.866,145.088,105.085,145.088,105.378z"/>
		<path fill="#FFFFFF" d="M149.636,105.977l0.777,0.131c-0.101,0.285-0.259,0.5-0.474,0.648s-0.484,0.225-0.809,0.225
			c-0.51,0-0.889-0.168-1.135-0.502c-0.194-0.269-0.291-0.605-0.291-1.015c0-0.487,0.127-0.871,0.382-1.146
			c0.256-0.276,0.577-0.414,0.966-0.414c0.439,0,0.784,0.145,1.038,0.434s0.374,0.732,0.363,1.33h-1.951
			c0.005,0.23,0.069,0.408,0.188,0.537c0.117,0.128,0.269,0.193,0.449,0.193c0.123,0,0.225-0.033,0.307-0.102
			C149.531,106.23,149.596,106.124,149.636,105.977z M149.682,105.189c-0.005-0.227-0.063-0.397-0.175-0.516
			c-0.11-0.117-0.245-0.174-0.403-0.174c-0.17,0-0.313,0.061-0.422,0.186c-0.109,0.123-0.166,0.291-0.162,0.504H149.682z"/>
		<path fill="#FFFFFF" d="M152.66,106.913v-4.062h1.226l0.737,2.771l0.73-2.771h1.229v4.062h-0.762v-3.197l-0.807,3.197h-0.791
			l-0.804-3.197v3.197H152.66z"/>
		<path fill="#FFFFFF" d="M159.098,105.977l0.774,0.131c-0.099,0.285-0.258,0.5-0.474,0.648c-0.215,0.148-0.484,0.225-0.81,0.225
			c-0.509,0-0.888-0.168-1.134-0.502c-0.194-0.269-0.292-0.605-0.292-1.015c0-0.487,0.128-0.871,0.384-1.146
			c0.254-0.276,0.577-0.414,0.967-0.414c0.438,0,0.784,0.145,1.035,0.434c0.252,0.289,0.373,0.732,0.363,1.33h-1.95
			c0.004,0.23,0.067,0.408,0.188,0.537c0.119,0.128,0.271,0.193,0.449,0.193c0.121,0,0.225-0.033,0.307-0.102
			C158.989,106.23,159.055,106.124,159.098,105.977z M159.141,105.189c-0.006-0.227-0.063-0.397-0.175-0.516
			c-0.11-0.117-0.247-0.174-0.403-0.174c-0.17,0-0.311,0.061-0.422,0.186c-0.113,0.123-0.166,0.291-0.164,0.504H159.141z
			 M158.146,103.609l0.381-0.827h0.873l-0.762,0.827H158.146z"/>
		<path fill="#FFFFFF" d="M160.174,106.913l1.061-1.517l-1.015-1.427h0.949l0.521,0.811l0.549-0.811h0.914l-0.998,1.395l1.091,1.549
			h-0.957l-0.599-0.912l-0.604,0.912H160.174z"/>
		<path fill="#FFFFFF" d="M163.704,103.57v-0.719h0.778v0.719H163.704z M163.704,106.913v-2.942h0.778v2.942H163.704z"/>
		<path fill="#FFFFFF" d="M167.846,104.841l-0.768,0.138c-0.026-0.151-0.085-0.269-0.176-0.346
			c-0.092-0.076-0.211-0.115-0.355-0.115c-0.195,0-0.349,0.064-0.465,0.198c-0.116,0.136-0.175,0.358-0.175,0.673
			c0,0.35,0.06,0.596,0.178,0.74c0.117,0.145,0.274,0.216,0.474,0.216c0.146,0,0.269-0.042,0.36-0.127
			c0.095-0.084,0.162-0.228,0.201-0.434l0.765,0.131c-0.078,0.353-0.23,0.616-0.459,0.796c-0.226,0.18-0.525,0.27-0.902,0.27
			c-0.433,0-0.775-0.137-1.03-0.408c-0.257-0.271-0.384-0.646-0.384-1.127c0-0.485,0.127-0.864,0.385-1.135
			c0.256-0.271,0.604-0.406,1.042-0.406c0.358,0,0.644,0.076,0.854,0.231C167.602,104.288,167.752,104.523,167.846,104.841z"/>
		<path fill="#FFFFFF" d="M168.257,105.398c0-0.258,0.063-0.508,0.19-0.75c0.127-0.241,0.307-0.426,0.541-0.555
			c0.232-0.127,0.494-0.191,0.783-0.191c0.444,0,0.811,0.146,1.093,0.435c0.284,0.289,0.428,0.655,0.428,1.097
			c0,0.446-0.146,0.813-0.431,1.106c-0.288,0.293-0.649,0.438-1.086,0.438c-0.271,0-0.525-0.062-0.771-0.184
			c-0.245-0.121-0.431-0.301-0.558-0.535C168.318,106.023,168.257,105.736,168.257,105.398z M169.055,105.441
			c0,0.291,0.068,0.516,0.206,0.67c0.14,0.156,0.31,0.232,0.515,0.232c0.201,0,0.373-0.076,0.512-0.232
			c0.137-0.154,0.205-0.381,0.205-0.676c0-0.289-0.068-0.511-0.205-0.664c-0.139-0.155-0.311-0.233-0.512-0.233
			c-0.205,0-0.375,0.078-0.515,0.233C169.123,104.926,169.055,105.148,169.055,105.441z"/>
		<path fill="#FFFFFF" d="M173.109,103.971h0.828l0.705,2.088l0.688-2.088h0.806l-1.041,2.831l-0.183,0.513
			c-0.069,0.172-0.137,0.305-0.197,0.395c-0.062,0.09-0.133,0.164-0.212,0.219c-0.082,0.057-0.18,0.103-0.297,0.133
			c-0.118,0.032-0.248,0.049-0.397,0.049c-0.15,0-0.297-0.017-0.438-0.049l-0.07-0.608c0.121,0.022,0.231,0.036,0.329,0.036
			c0.182,0,0.314-0.055,0.4-0.16c0.088-0.105,0.154-0.241,0.201-0.405L173.109,103.971z"/>
		<path fill="#FFFFFF" d="M178.205,106.913v-4.062h1.229l0.735,2.771l0.729-2.771h1.229v4.062h-0.765v-3.197l-0.805,3.197h-0.791
			l-0.802-3.197v3.197H178.205z"/>
		<path fill="#FFFFFF" d="M184.874,106.913v-0.44c-0.106,0.157-0.248,0.28-0.421,0.371c-0.176,0.09-0.36,0.137-0.555,0.137
			c-0.197,0-0.377-0.043-0.532-0.131c-0.156-0.086-0.271-0.209-0.343-0.365c-0.066-0.157-0.104-0.375-0.104-0.651v-1.86h0.779v1.353
			c0,0.413,0.014,0.666,0.042,0.76c0.027,0.095,0.08,0.166,0.156,0.222c0.076,0.055,0.172,0.082,0.289,0.082
			c0.133,0,0.25-0.037,0.355-0.109c0.107-0.073,0.18-0.163,0.217-0.271c0.038-0.107,0.059-0.373,0.059-0.793v-1.24h0.779v2.941
			h-0.722V106.913z"/>
		<path fill="#FFFFFF" d="M189.079,106.913h-0.778v-1.502c0-0.318-0.018-0.522-0.051-0.617c-0.032-0.093-0.086-0.164-0.161-0.217
			c-0.073-0.052-0.165-0.076-0.271-0.076c-0.135,0-0.254,0.035-0.362,0.108c-0.106,0.076-0.181,0.173-0.222,0.295
			c-0.039,0.121-0.059,0.348-0.059,0.675v1.334h-0.779v-2.942h0.726v0.432c0.255-0.332,0.579-0.498,0.969-0.498
			c0.17,0,0.329,0.029,0.472,0.093c0.143,0.062,0.248,0.142,0.321,0.239c0.073,0.095,0.123,0.203,0.153,0.326
			c0.029,0.121,0.042,0.295,0.042,0.521V106.913z"/>
		<path fill="#FFFFFF" d="M189.869,103.57v-0.719h0.779v0.719H189.869z M189.869,106.913v-2.942h0.779v2.942H189.869z"/>
		<path fill="#FFFFFF" d="M194.012,104.841l-0.769,0.138c-0.025-0.151-0.083-0.269-0.177-0.346
			c-0.092-0.076-0.209-0.115-0.354-0.115c-0.194,0-0.349,0.064-0.465,0.198c-0.114,0.136-0.173,0.358-0.173,0.673
			c0,0.35,0.06,0.596,0.177,0.74s0.274,0.216,0.474,0.216c0.146,0,0.267-0.042,0.362-0.127c0.095-0.084,0.158-0.228,0.197-0.434
			l0.767,0.131c-0.08,0.353-0.232,0.616-0.455,0.796c-0.228,0.18-0.529,0.27-0.908,0.27c-0.432,0-0.771-0.137-1.028-0.408
			c-0.259-0.271-0.384-0.646-0.384-1.127c0-0.485,0.127-0.864,0.384-1.135c0.258-0.271,0.604-0.406,1.043-0.406
			c0.356,0,0.641,0.076,0.854,0.231C193.768,104.288,193.918,104.523,194.012,104.841z"/>
		<path fill="#FFFFFF" d="M194.602,103.57v-0.719h0.778v0.719H194.602z M194.602,106.913v-2.942h0.778v2.942H194.602z"/>
		<path fill="#FFFFFF" d="M196.156,103.971h0.726v0.432c0.095-0.146,0.224-0.267,0.382-0.359c0.16-0.092,0.34-0.139,0.535-0.139
			c0.342,0,0.633,0.135,0.871,0.402c0.235,0.268,0.355,0.641,0.355,1.118c0,0.491-0.12,0.872-0.357,1.146
			c-0.243,0.271-0.533,0.408-0.875,0.408c-0.163,0-0.311-0.033-0.441-0.097s-0.271-0.176-0.418-0.333v1.482h-0.776L196.156,103.971
			L196.156,103.971z M196.926,105.393c0,0.33,0.065,0.573,0.197,0.731s0.289,0.237,0.479,0.237c0.183,0,0.332-0.073,0.451-0.219
			c0.121-0.146,0.182-0.383,0.182-0.713c0-0.309-0.062-0.537-0.185-0.688c-0.125-0.15-0.278-0.225-0.462-0.225
			c-0.191,0-0.348,0.071-0.475,0.221C196.989,104.886,196.926,105.104,196.926,105.393z"/>
		<path fill="#FFFFFF" d="M199.645,103.57v-0.719h0.777v0.719H199.645z M199.645,106.913v-2.942h0.777v2.942H199.645z"/>
		<path fill="#FFFFFF" d="M201.041,105.398c0-0.258,0.062-0.508,0.189-0.75c0.129-0.241,0.309-0.426,0.543-0.555
			c0.232-0.127,0.494-0.191,0.783-0.191c0.443,0,0.809,0.146,1.092,0.435c0.285,0.289,0.428,0.655,0.428,1.097
			c0,0.446-0.145,0.813-0.432,1.106s-0.648,0.438-1.082,0.438c-0.271,0-0.529-0.062-0.773-0.184
			c-0.243-0.121-0.43-0.301-0.559-0.535C201.104,106.023,201.041,105.736,201.041,105.398z M201.837,105.441
			c0,0.291,0.07,0.516,0.209,0.67c0.14,0.156,0.31,0.232,0.515,0.232c0.203,0,0.371-0.076,0.51-0.232
			c0.139-0.154,0.207-0.381,0.207-0.676c0-0.289-0.068-0.511-0.207-0.664c-0.139-0.155-0.307-0.233-0.51-0.233
			c-0.205,0-0.375,0.078-0.515,0.233C201.907,104.926,201.837,105.148,201.837,105.441z"/>
		<path fill="#FFFFFF" d="M204.412,106.073l0.781-0.119c0.033,0.151,0.1,0.266,0.201,0.345c0.103,0.079,0.246,0.119,0.426,0.119
			c0.203,0,0.354-0.038,0.455-0.111c0.07-0.053,0.104-0.121,0.104-0.207c0-0.06-0.021-0.108-0.057-0.147
			c-0.038-0.036-0.125-0.071-0.261-0.103c-0.629-0.138-1.026-0.266-1.193-0.38c-0.232-0.159-0.348-0.38-0.348-0.663
			c0-0.254,0.1-0.469,0.301-0.643c0.199-0.173,0.514-0.262,0.938-0.262c0.401,0,0.698,0.066,0.896,0.197
			c0.195,0.131,0.33,0.324,0.402,0.582l-0.731,0.137c-0.033-0.114-0.093-0.202-0.179-0.264c-0.09-0.062-0.213-0.092-0.375-0.092
			c-0.207,0-0.353,0.027-0.441,0.086c-0.059,0.04-0.089,0.094-0.089,0.157c0,0.056,0.026,0.103,0.077,0.142
			c0.072,0.053,0.312,0.125,0.728,0.219c0.416,0.096,0.704,0.211,0.87,0.347c0.161,0.142,0.242,0.332,0.242,0.58
			c0,0.271-0.113,0.502-0.338,0.694c-0.225,0.194-0.559,0.291-1.002,0.291c-0.398,0-0.717-0.082-0.95-0.244
			C204.637,106.573,204.484,106.354,204.412,106.073z"/>
	</g>
	<g>
		<g>
			<path fill="#FFFFFF" d="M94.602,75.1h-6.555V62.441c0-2.668-0.14-4.399-0.423-5.188c-0.285-0.791-0.733-1.4-1.367-1.834
				c-0.627-0.441-1.389-0.658-2.273-0.658c-1.139,0-2.155,0.316-3.065,0.938c-0.906,0.619-1.521,1.442-1.849,2.472
				c-0.343,1.027-0.516,2.922-0.516,5.701v11.225h-6.556V50.291h6.089v3.641c2.17-2.785,4.892-4.187,8.178-4.187
				c1.448,0,2.773,0.265,3.971,0.785c1.199,0.52,2.114,1.182,2.721,1.991c0.61,0.817,1.047,1.729,1.29,2.755
				c0.241,1.033,0.355,2.501,0.355,4.414V75.1z"/>
			<path fill="#FFFFFF" d="M98.37,50.291h3.637v-1.857c0-2.088,0.213-3.644,0.658-4.671c0.44-1.027,1.264-1.861,2.453-2.507
				c1.188-0.646,2.699-0.973,4.516-0.973c1.87,0,3.698,0.281,5.493,0.843l-0.876,4.555c-1.049-0.249-2.06-0.377-3.026-0.377
				c-0.954,0-1.633,0.224-2.044,0.672c-0.41,0.443-0.619,1.305-0.619,2.566v1.749h4.913v5.153h-4.913V75.1h-6.555V55.443H98.37
				V50.291z"/>
			<path fill="#FFFFFF" d="M160.723,67.178l6.532,1.1c-0.841,2.402-2.166,4.231-3.987,5.483c-1.806,1.259-4.072,1.884-6.801,1.884
				c-4.312,0-7.504-1.399-9.572-4.223c-1.642-2.257-2.459-5.099-2.459-8.538c0-4.108,1.078-7.327,3.224-9.654
				c2.151-2.316,4.864-3.484,8.153-3.484c3.684,0,6.598,1.22,8.724,3.655c2.135,2.431,3.153,6.167,3.062,11.187h-16.438
				c0.047,1.941,0.573,3.451,1.588,4.523c1.017,1.082,2.276,1.619,3.794,1.619c1.023,0,1.889-0.277,2.588-0.83
				C159.826,69.329,160.369,68.423,160.723,67.178z M161.089,60.564c-0.051-1.895-0.54-3.335-1.476-4.319
				c-0.934-0.984-2.067-1.482-3.413-1.482c-1.433,0-2.61,0.528-3.543,1.572c-0.94,1.029-1.405,2.445-1.386,4.229H161.089z"/>
			<path fill="#FFFFFF" d="M172.451,50.291h6.046v3.388c2.155-2.621,4.729-3.934,7.715-3.934c1.587,0,2.97,0.327,4.131,0.981
				c1.171,0.65,2.134,1.644,2.88,2.964c1.088-1.32,2.266-2.314,3.524-2.964c1.26-0.654,2.604-0.981,4.037-0.981
				c1.825,0,3.36,0.376,4.621,1.111c1.271,0.738,2.212,1.822,2.831,3.256c0.445,1.059,0.681,2.768,0.681,5.133V75.1h-6.562V60.923
				c0-2.453-0.229-4.043-0.685-4.762c-0.604-0.932-1.534-1.398-2.802-1.398c-0.918,0-1.777,0.28-2.592,0.844
				c-0.812,0.555-1.393,1.378-1.752,2.461c-0.356,1.082-0.539,2.787-0.539,5.119V75.1h-6.557V61.511
				c0-2.411-0.115-3.967-0.354-4.671c-0.229-0.696-0.594-1.225-1.079-1.563c-0.491-0.336-1.158-0.514-1.99-0.514
				c-1.017,0-1.919,0.27-2.735,0.818c-0.801,0.546-1.377,1.334-1.735,2.354c-0.349,1.028-0.524,2.731-0.524,5.116V75.1h-6.562
				L172.451,50.291L172.451,50.291z"/>
			<path fill="#FFFFFF" d="M137.634,53.4c-2.397-2.44-5.471-3.655-9.224-3.655c-2.428,0-4.623,0.541-6.59,1.608
				c-1.971,1.08-3.492,2.633-4.57,4.669c-1.074,2.044-1.604,4.145-1.604,6.322c0,2.846,0.528,5.266,1.604,7.244
				c1.078,1.988,2.645,3.489,4.707,4.523c2.062,1.016,4.229,1.531,6.503,1.531c3.674,0,6.713-1.229,9.136-3.697
				c2.42-2.463,3.637-5.574,3.637-9.32C141.232,58.905,140.025,55.831,137.634,53.4z M139.295,65.656l-0.234,0.191l-0.444,0.346
				l-0.437,0.191h-0.246h-0.388l-0.345-0.096L136.956,66v-0.248c0,0,0.245,0.146-0.142-0.146c-0.396-0.299-0.396-0.299-0.396-0.299
				h-0.138h-0.149l-0.192-0.233v-0.341v-0.395l-0.102-0.242v-0.294l0.102-0.288l-0.051-0.201c0,0-0.051-0.186,0-0.336
				c0.051-0.143,0.193-0.633,0.193-0.633l-0.244-0.051l-0.337-0.336l-0.243-0.102h-0.148l-0.191-0.146v-0.339l-0.148-0.294
				l-0.293-0.193l-0.293-0.151l-0.051-0.284l0.051-0.293l-0.293-0.046l-0.051,0.143v0.298c0,0,0.151,0.138,0,0.185
				c-0.141,0.055-0.285,0.102-0.285,0.102h-0.294h-0.145l-0.146,0.197l0.047,0.49l-0.102,0.143l-0.197,0.191l-0.432,0.244
				l-0.247,0.047c0,0,0.055,0.344-0.097,0.438c-0.142,0.099-0.285,0.146-0.285,0.146s-0.102,0.103-0.055,0.244
				c0.055,0.15,0.146,0.293,0.146,0.293s0.146,0.146,0.191,0.289c0.052,0.146,0.151,0.34,0.151,0.34l0.044,0.299l0.053,0.289v0.344
				c0,0-0.248-0.098-0.248,0.05c0,0.144,0,0.533,0,0.533v0.437l0.098,0.44v0.142l-0.382,0.295c0,0-0.199,0.246-0.343,0.246
				c-0.152,0-0.152,0-0.152,0l-0.146,0.285l-0.043,0.247l-0.049,0.293l-0.298,0.248c0,0-0.046,0.093-0.092,0.243
				c-0.046,0.145-0.194,0.29-0.194,0.29l-0.146,0.34l-0.297,0.097l-0.48-0.048l-0.1-0.241l-0.049-0.201c0,0,0.096-0.092-0.146,0
				c-0.238,0.096-0.238,0.096-0.238,0.096l-0.347-0.143l-0.102-0.289l-0.24-0.051H128l0.148,0.192l0.094,0.344l-0.342-0.241
				c0,0-0.145-0.103-0.336,0.146c-0.189,0.242-0.244,0.481-0.244,0.481v0.248c0,0,0.055,0.146-0.103,0.191
				c-0.149,0.051-0.245,0.189-0.386,0.189c-0.15,0-0.393,0.054-0.393,0.054s0.052-0.054-0.146,0
				c-0.194,0.051-0.388,0.051-0.536,0.051c-0.146,0-0.338,0.104-0.338,0.104l-0.098,0.18c0,0-0.15,0.152-0.297,0.152
				c-0.144,0-0.289,0-0.289,0l-0.09-0.103l-0.197-0.144h-0.145l-0.201,0.052l-0.094,0.289l-0.197,0.146c0,0-0.101,0.244-0.246,0.244
				c-0.146,0-0.389,0.096-0.389,0.096l-0.145,0.244l-0.197,0.201l-0.533,0.243l-0.195,0.188c0,0-0.145,0-0.145,0.149
				c0,0.14-0.05,0.388-0.05,0.388h-0.338c-0.29-0.199-0.483-0.341-0.483-0.341s-0.057-0.047-0.206-0.102
				c-0.146-0.05-0.237-0.05-0.237-0.05c-0.051-0.234-0.144-0.188-0.051-0.387c0.096-0.197,0.246-0.293,0.246-0.293l-0.15-0.193
				c-0.146-0.146-0.045-0.242-0.238-0.146s-0.243,0.193-0.243,0.193l-0.196-0.048l-0.047-0.495V70.13v-0.144l-0.342-0.34
				l-0.146-0.146l0.192-0.144l0.05-0.248c0,0,0.149,0.144,0.195-0.241c0.051-0.39,0.051-0.39,0.051-0.39l0.194-0.047l-0.194-0.102
				l-0.197-0.242l-0.19-0.09l-0.198-0.055l-0.247-0.191c0,0-0.138-0.051-0.286-0.102c-0.142-0.045-0.297-0.197-0.297-0.197
				s-0.143-0.045-0.287-0.092c-0.145-0.051-0.291-0.197-0.291-0.197s0.192-0.191,0.34-0.191c0.149,0,0.238-0.051,0.238-0.051h0.155
				v-0.294c0,0,0.088-0.101,0.088-0.243c0-0.142,0.054-0.34,0.054-0.34l0.286-0.146h0.296c0,0,0.051-0.146,0.196-0.146
				s0.342-0.097,0.342-0.097l0.148-0.243l0.286-0.201v-0.256c-0.012,0.008,0-0.029,0-0.029v0.029
				c0.009-0.008,0.035-0.043,0.103-0.176c0.144-0.294,0.188-0.486,0.188-0.486l0.191-0.34l0.35-0.345l0.141-0.387l-0.046-0.686
				l0.147-0.285l0.144-0.105h0.485c0,0,0.242-0.047,0.297-0.238c0.044-0.197,0.044-0.387,0.044-0.387s0.146-0.196,0.146-0.348
				c0-0.143,0.149-0.29-0.055-0.387c-0.189-0.102-0.382-0.238-0.382-0.238s-0.095,0.096-0.146-0.248
				c-0.048-0.34-0.048-0.34-0.048-0.34l-0.191-0.443l-0.051-0.387l0.242-0.05h0.34h0.34l0.287-0.29l0.2-0.381l-0.047-0.344v-0.39
				l0.047-0.248h0.246h0.144l0.242-0.155l-0.293-0.187l-0.146-0.199c0,0,0-0.188,0-0.336c0-0.144,0-0.393,0-0.393v-0.283
				l0.244-0.102h0.443l0.189-0.148l0.15-0.143l0.143-0.101h0.242l0.341,0.101h0.149c0,0,0.139-0.146,0.139-0.297
				c0-0.146,0-0.437,0-0.437v-0.246l-0.094-0.141l-0.334-0.343l-0.104-0.243l0.051-0.19h0.249v0.287l0.232-0.046l0.201-0.298
				l0.234-0.042c0.493,0.042,0.493,0.042,0.493,0.042s-0.048,0.101,0.146,0.248c0.192,0.147,0.582,0.394,0.582,0.394l0.195,0.192
				l0.296,0.141l0.144,0.052c0,0,0.148-0.052,0.297-0.052c0.143,0,0.531,0,0.531,0l0.052,0.193c0-0.002,0.026-0.023,0.188-0.092
				c0.248-0.101,0.35-0.242,0.35-0.242s0.287-0.054,0.436,0c0.146,0.043,0.146,0.091,0.34,0.334
				c0.193,0.246,0.393,0.489,0.393,0.489l0.246,0.531v0.441l-0.196,0.297l-0.192,0.141c0,0-0.203,0.291-0.056,0.346
				c0.149,0.047,0.296,0.145,0.296,0.145s-0.048,0,0.098,0.145c0.144,0.151,0.293,0.25,0.293,0.25l0.336,0.139l0.097,0.395
				l0.396,0.295l0.244-0.104l0.191-0.047c0,0-0.191-0.093,0-0.295c0.195-0.187,0.242-0.291,0.39-0.381
				c0.146-0.099,0.335-0.25,0.335-0.25s-0.05,0.093,0.149-0.145c0.198-0.249,0.198-0.249,0.198-0.249s0-0.138,0.049-0.34
				c0.05-0.19,0.095-0.339,0.248-0.382c0.144-0.053,0.24-0.194,0.24-0.194s0.34-0.099,0.487-0.099c0.142,0,0.294,0,0.294,0
				l0.19,0.24h0.243h0.289c0,0,0.148,0.053,0.287,0.096c0.153,0.045,0.342,0.297,0.342,0.297v0.289l0.101,0.244l-0.192,0.145
				l-0.388,0.053l0.048,0.385c0,0,0.09-0.09,0.244,0.049c0.143,0.147,0.34,0.299,0.34,0.299c0.242-0.348,0.242-0.348,0.242-0.348
				l0.191-0.09l0.096-0.25l0.05-0.242h0.486l0.296,0.145c0,0,0,0.053,0.294,0.053c0.297,0,0.681,0.045,0.681,0.045l0.44,0.29
				c0,0,0.049,0.051,0.188,0.1c0.146,0.057,0.25,0.197,0.25,0.197l0.189,0.289l0.247,0.303l-0.049,0.238l-0.048,0.234v0.391h-0.289
				c0,0-0.248,0.051-0.248,0.197c0,0.146-0.055,0.536-0.055,0.536l-0.382,0.101v0.34l0.144,0.34l0.293,0.197
				c0,0,0.197,0.238,0.197,0.387c0,0.15,0,0.536,0,0.536l0.094,0.481v0.248c0,0,0.049,0.245,0.049,0.389c0,0.147,0,0.391,0,0.391
				v0.387l0.197,0.586l0.048,0.392c0,0,0,0.293,0,0.432c0,0.154,0.049,0.396,0.049,0.396L139.295,65.656z"/>
			<polygon fill="#FFFFFF" points="32.953,83.465 39.684,80.626 39.684,36.258 32.953,39.103 			"/>
			<polygon fill="#FFFFFF" points="32.951,83.465 39.684,80.626 39.684,36.258 32.953,39.103 			"/>
			<polygon fill="#FFFFFF" points="47.325,38.187 47.325,46.99 58.14,42.435 58.14,77.846 64.891,75.124 64.891,30.766 			"/>
			<polyline fill="#FFFFFF" points="58.136,42.435 52.662,44.744 52.662,75.003 58.136,77.846 58.136,42.435 			"/>
			<polyline fill="#FFFFFF" points="27.472,36.258 27.472,80.626 32.951,83.465 32.951,39.109 27.472,36.258 			"/>
			<polyline fill="#FFFFFF" points="41.854,35.335 41.854,44.153 47.325,46.99 47.325,38.187 41.854,35.335 			"/>
			<path fill="#FFFFFF" d="M63.353,12.288c-2.746-4.21-8.22-5.061-12.216-1.906c-4.006,3.153-5.019,9.122-2.272,13.327
				c2.75,4.201,8.223,5.059,12.219,1.906C65.084,22.459,66.104,16.493,63.353,12.288z"/>
			<path fill="#FFFFFF" d="M38.14,17.784c-2.75-4.209-8.218-5.061-12.22-1.907c-3.996,3.157-5.019,9.123-2.268,13.329
				c2.743,4.206,8.214,5.057,12.219,1.905C39.867,27.956,40.89,21.985,38.14,17.784z"/>
			<polygon fill="#FFFFFF" points="47.325,46.99 58.136,42.435 58.136,77.846 64.891,75.124 64.891,30.766 47.325,38.187 			"/>
		</g>
	</g>
</g>
</svg>
