<?xml version="1.0" encoding="utf-8"?>
<!-- Generator: Adobe Illustrator 16.0.4, SVG Export Plug-In . SVG Version: 6.00 Build 0)  -->
<!DOCTYPE svg PUBLIC "-//W3C//DTD SVG 1.1//EN" "http://www.w3.org/Graphics/SVG/1.1/DTD/svg11.dtd">
<svg version="1.1" id="Capa_1" xmlns="http://www.w3.org/2000/svg" xmlns:xlink="http://www.w3.org/1999/xlink" x="0px" y="0px"
	 width="512px" height="512px" viewBox="0 0 512 512" enable-background="new 0 0 512 512" xml:space="preserve">
<title>person_pin</title>
<path fill="#E6E6E6" d="M384,341v-19c0-43-85-66-128-66s-128,23-128,66v19H384z M256,113c-32,0-58,26-58,58s26,57,58,57s58-25,58-57
	S288,113,256,113z M405,43c23,0,43,19,43,42v299c0,23-20,43-43,43h-85l-64,64l-64-64h-85c-24,0-43-20-43-43V85c0-23,19-42,43-42H405
	z"/>
</svg>
