<?xml version="1.0" encoding="utf-8"?>
<!-- Generator: Adobe Illustrator 23.0.2, SVG Export Plug-In . SVG Version: 6.00 Build 0)  -->
<svg version="1.1" id="Capa_1" xmlns="http://www.w3.org/2000/svg" xmlns:xlink="http://www.w3.org/1999/xlink" x="0px" y="0px"
	 viewBox="0 0 800 600" style="enable-background:new 0 0 800 600;" xml:space="preserve">
<style type="text/css">
	.st0{display:none;}
	.st1{display:inline;fill:#EC6657;}
	.st2{display:inline;}
	.st3{fill:#652440;stroke:#652440;stroke-width:0.25;stroke-miterlimit:10;}
	.st4{display:inline;fill:#652440;stroke:#652440;stroke-width:0.25;stroke-miterlimit:10;}
	.st5{display:inline;fill:#FFFFFF;}
	.st6{fill:#FFFFFF;}
	.st7{fill:#EC6657;}
</style>
<g id="C01" class="st0">
	<path class="st1" d="M400,104.1c-108.2,0-195.9,87.7-195.9,195.9S291.8,495.9,400,495.9S595.9,408.2,595.9,300
		S508.2,104.1,400,104.1z M400,448.3c-81.9,0-148.4-66.4-148.4-148.3S318,151.6,400,151.6c81.9,0,148.3,66.4,148.3,148.4
		C548.3,381.9,481.9,448.3,400,448.3z"/>
</g>
<g id="C02" class="st0">
	<g class="st2">
		<path class="st3" d="M400,97.3c-111.8,0-202.7,90.9-202.7,202.7c0,111.7,90.9,202.7,202.7,202.7c111.7,0,202.7-90.9,202.7-202.7
			S511.8,97.3,400,97.3z M400,489.1c-104.3,0-189.2-84.9-189.2-189.1c0-104.3,84.9-189.2,189.2-189.2S589.1,195.7,589.1,300
			C589.2,404.3,504.3,489.1,400,489.1z"/>
		<path class="st3" d="M400,144.9c-85.5,0-155.1,69.6-155.1,155.1S314.5,455.1,400,455.1S555.1,385.5,555.1,300
			S485.5,144.9,400,144.9z M400,441.6c-78.1,0-141.6-63.5-141.6-141.6S321.9,158.4,400,158.4S541.6,221.9,541.6,300
			S478.1,441.6,400,441.6z"/>
		<polygon class="st3" points="457.3,212 400,269.4 342.7,212 312,242.7 369.4,300 312,357.3 342.7,388 400,330.6 457.3,388 
			488,357.3 430.6,300 488,242.7 		"/>
	</g>
</g>
<g id="Capa_3" class="st0">
	<ellipse class="st4" cx="400" cy="300" rx="202.7" ry="202.7"/>
</g>
<g id="Capa_4" class="st0">
	<path class="st5" d="M518.4,360.5L415,172c-3-5.5-8.8-8.9-15-8.9c-6.3,0-12,3.4-15,8.9L281.6,360.5c-2.9,5.3-2.8,11.8,0.3,17
		s8.7,8.4,14.8,8.4h206.8c6.1,0,11.7-3.2,14.8-8.4S521.3,365.8,518.4,360.5z"/>
	<g class="st2">
		<g>
			<path class="st3" d="M386.3,341.1c0-8,5.8-13.7,13.7-13.7c8.4,0,13.7,5.8,13.7,13.7c0,7.7-5.3,13.7-13.7,13.7
				C391.9,354.8,386.3,348.8,386.3,341.1z M392.1,316.2l-3.3-111.6h22.3l-3.3,111.6H392.1z"/>
		</g>
	</g>
	<rect x="389" y="205" class="st4" width="25" height="111"/>
</g>
<g>
	<path class="st6" d="M288.9,503.8h293.5V139h-64.6l-0.7-2.1c-2.6-7.3-9.5-12.2-17.2-12.2h-14.3c-5.7,0-10.3-4.6-10.3-10.3
		c0-10-8.3-18.2-18.3-18.3h-42.8c-10.1,0-18.3,8.2-18.3,18.3c0,2.8-1.1,5.4-3.1,7.3c-1.9,1.9-4.4,2.9-7.1,2.9l-14.3,0
		c-7.7,0-14.6,4.9-17.2,12.2l-0.7,2.1h-64.6v157.2l-2.8,0.3c-39,3.6-68.4,35.8-68.4,74.9c0,39.2,29.5,71.4,68.4,74.9l2.8,0.3V503.8z
		"/>
	<g>
		<path class="st7" d="M314.5,299.3l4,1.2V168h34.9l0.6-21.2h-57.2v149.4l2.8,0.3C304.7,296.9,309.7,297.8,314.5,299.3z"/>
		<path class="st7" d="M517.2,146.7l0.7,21.2h35.9v307.9H318.5v-33.6l-4,1.2c-4.8,1.5-9.8,2.4-14.8,2.9l-2.8,0.3v49.2h277.4V146.7
			H517.2z"/>
	</g>
	<path class="st3" d="M428.5,135.9h14.3c3.9,0,7.1-3.2,7.1-7.1c0-3.9-3.2-7.1-7.1-7.1h-14.3c-3.9,0-7.1,3.2-7.1,7.1
		C421.3,132.7,424.5,135.9,428.5,135.9z"/>
	<g>
		<g>
			<polygon class="st3" points="323.1,344.2 284.9,382.5 264,361.6 253.9,371.7 284.9,402.7 333.2,354.3 			"/>
			<path class="st3" d="M519.9,135.9c-3-8.5-11.1-14.2-20.1-14.3h-14.3c-3.9,0-7.1-3.2-7.1-7.1c-0.1-11.8-9.6-21.4-21.4-21.4h-42.8
				c-11.8,0-21.4,9.6-21.4,21.4c0,1.9-0.8,3.8-2.2,5.1c-1.3,1.3-3.1,2.1-4.9,2h-14.3c-9,0-17.1,5.7-20.1,14.3h-65.5v157.5
				c-39.9,3.6-71.2,37.2-71.2,78c0,40.9,31.3,74.4,71.2,78V507h299.7V135.9H519.9z M542.6,178.8v285.9H329.7v-24.2
				c15.6-8.3,28-21.6,35.1-37.9c16.5-37.8,0.7-81.5-35.1-100.4V178.8H350c0.1,7.8,6.4,14.1,14.3,14.1H507c7.8,0,14.2-6.3,14.3-14.1
				H542.6z M371.4,135.9h14.3c5.6,0,11.1-2.2,15-6.2c4.1-4,6.4-9.5,6.4-15.2c0-3.9,3.2-7.1,7.1-7.1H457c1.9,0,3.8,0.8,5.1,2.2
				c1.3,1.3,2.1,3.1,2,4.9c0,11.8,9.6,21.4,21.4,21.4h14.3c3.9,0,7.1,3.2,7.1,7.1v35.7H364.3V143
				C364.3,139.1,367.5,135.9,371.4,135.9z M350.9,149.8l-0.4,15h-35v131.5c-5-1.5-10.2-2.5-15.4-3V149.8H350.9z M228.7,371.4
				c0-35.5,28.8-64.2,64.2-64.2c8.8,0,17.6,1.8,25.7,5.4c32.5,14.1,47.4,52,33.2,84.5c-6.5,14.9-18.3,26.7-33.2,33.2
				c-8.1,3.6-16.8,5.4-25.7,5.4C257.4,435.6,228.7,406.8,228.7,371.4z M571.2,492.7H300v-43.3c5.2-0.5,10.4-1.5,15.4-3V479h241.4
				V164.8h-36l-0.5-15h50.8V492.7z"/>
		</g>
	</g>
	<rect x="377.8" y="235.8" class="st3" width="114.6" height="14"/>
	<rect x="385.7" y="321.6" class="st3" width="128.5" height="14"/>
	<rect x="392.8" y="364.4" class="st3" width="121.3" height="14"/>
	<rect x="385.7" y="407.2" class="st3" width="128.5" height="14"/>
	<rect x="354.1" y="278.7" class="st3" width="160" height="14"/>
</g>
</svg>
