<!-- Generated by IcoMoon.io -->
<svg version="1.1" xmlns="http://www.w3.org/2000/svg" width="512" height="512" viewBox="0 0 512 512">
<title>youtube</title>
<path fill="#fff" d="M501.226 132.374c-6.183-21.654-22.89-38.361-44.091-44.433l-0.452-0.111c-39.894-10.688-200.448-10.688-200.448-10.688s-160.149-0.213-200.448 10.688c-21.654 6.183-38.361 22.891-44.433 44.092l-0.111 0.452c-7.087 36.489-11.14 78.452-11.14 121.362 0 0.871 0.002 1.742 0.005 2.613l-0.001-0.134c-0.002 0.599-0.003 1.308-0.003 2.017 0 42.906 4.053 84.866 11.799 125.517l-0.66-4.163c6.183 21.654 22.89 38.361 44.091 44.433l0.453 0.111c39.85 10.709 200.448 10.709 200.448 10.709s160.128 0 200.448-10.709c21.654-6.183 38.361-22.89 44.433-44.091l0.111-0.452c6.795-35.736 10.682-76.843 10.682-118.858 0-1.587-0.005-3.172-0.017-4.756l0.002 0.243c0.012-1.476 0.019-3.22 0.019-4.964 0-42.020-3.888-83.133-11.324-122.998l0.639 4.123zM204.992 332.822v-153.451l133.632 76.843z"></path>
</svg>
